<svg id="Capa_1" data-name="Capa 1" xmlns="http://www.w3.org/2000/svg" viewBox="0 0 800.17 715.04"><defs><style>.cls-1{fill:#937ab6;}.cls-2{fill:#02bee0;}</style></defs><title>aspnetcore</title><path class="cls-1" d="M0,435c.33-.26.94-.52,1-.79.09-1.83,0-3.67.06-5.5.28-4.53.29-9.13,1.14-13.55.39-2,.3-4.22,1-6.06s.38-3.86.94-5.61c1.65-5.22,2.38-10.65,3.65-15.94A269,269,0,0,1,16.07,360c1.56-4.35,3-8.73,4.95-13,3-6.58,5.57-13.37,9-19.75,4.37-8.07,8.83-16.08,13.93-23.73,4.28-6.42,8.82-12.65,13.18-19a73.9,73.9,0,0,1,5.7-6.6c6.2-7.06,12.63-14,19.41-20.45,4.67-4.48,9.71-8.62,14.73-12.7,6.73-5.48,14-10.38,21.15-15.25,4.1-2.78,8.67-4.86,12.86-7.52,5.51-3.49,11.48-6.07,17.28-9A197.16,197.16,0,0,1,167,205a188.55,188.55,0,0,1,19-6.19c4-1,8-2.43,12.1-3.29s8.19-2.17,12.44-2.66a27.1,27.1,0,0,0,7.79-1.66,2.94,2.94,0,0,1,.89-.25c4-.35,8.13-.31,12.06-1.1,5-1,10.2-.14,15.07-1.08,6.91-1.35,13.76-.37,20.62-.82,2.76-.18,5.22,1.45,8.09,1.08a22.68,22.68,0,0,1,8.45.07c2.74.72,5.41.63,8.12.89a51.54,51.54,0,0,1,8,1.14c5.6,1.49,11.57,1.26,16.9,3.8,4-.19,7.7,1.4,11.47,2.47,3.57,1,7.06,2.5,10.58,3.33,5.8,1.37,11.09,3.86,16.61,5.83A190.3,190.3,0,0,1,378.84,217c5.52,2.87,10.83,6.09,16.15,9.34,5,3,9.76,6.26,14.56,9.52,3.54,2.4,6.91,5,10.33,7.56a136.91,136.91,0,0,1,15.51,13.34c2.62,2.64,5.7,4.84,8.86,7.47-1.45,1.45-2.71,2.63-3.88,3.9-4.93,5.3-9.83,10.63-15,16.24a29.35,29.35,0,0,1-2.88-1.47c-4.16-2.71-7.12-6.8-11-9.8-6.24-4.88-11.94-10.53-19.08-14.22-2.71-3.27-6.86-4.49-10.1-7s-7.1-3.87-10.47-6a109.38,109.38,0,0,0-13.59-7.08c-5-2.29-10.19-4.36-15.35-6.38A127.88,127.88,0,0,0,323.07,226c-2.1-.44-4.08-1.53-6.19-1.92-5.1-.93-10-2.64-15.23-3.22-2.44-.27-5.16-.22-7.43-1.23-2.46-1.1-5.11.28-7.2-.71-2.75-1.31-5.44-.77-8.14-.83-4.55-.1-9-1.48-13.59-1.12s-9.34-.13-14,.14c-5,.29-10,1.38-15.09.94-2.37,1.51-5.12.52-7.56,1.11a33.6,33.6,0,0,1-7.11.94,21.62,21.62,0,0,0-3.59.94c-6,1.25-12,2.24-17.84,4-5.62,1.71-11.27,3.34-16.83,5.24a192.06,192.06,0,0,0-32.1,14.19c-8.72,4.91-17.54,9.69-25.36,16.11-4.44,3.64-9.21,6.87-13.65,10.55-3,2.51-5.76,5.3-8.68,7.89-2.18,1.93-4.78,3.5-6.58,5.72-3.73,4.62-8.24,8.51-12,13A248.16,248.16,0,0,0,63.4,327.3a175.32,175.32,0,0,0-11.81,21.6,276.9,276.9,0,0,0-12.21,32.42c-1.44,4.9-2.53,10-3.56,15.08-.9,4.42-1.21,9-2.69,13.34-.79,2.32-.46,5-1,7.57a76,76,0,0,0-1.13,14c-.13,13.5-.09,27,0,40.49a43.73,43.73,0,0,0,1,7.08c.38,2.19-1,4.63.95,6.62.25.25,0,1,0,1.47-.12,4,1.22,7.81,1.82,11.7.82,5.31,2.08,10.5,3.24,15.71,1.34,6,3.63,11.81,5.52,17.7a225.14,225.14,0,0,0,28.79,56.53c3.84,5.49,8.15,10.72,12.48,15.91,6.86,8.17,14.52,15.43,22.2,22.67a155.29,155.29,0,0,0,17.54,14.13c6.47,4.49,13,8.93,19.63,13.13a76.56,76.56,0,0,0,11.34,6.36c4,1.65,7.69,3.86,11.78,5.38,4.28,1.59,8.47,3.67,12.79,5.3,6.06,2.28,12.21,4.49,18.41,6.17,4.93,1.34,10,2.59,15.12,3.52,4.42.8,9,1,13.3,2.76a2.33,2.33,0,0,0,1,0c4.75-.38,9.42.75,14.05,1.27,5.06.57,10.08.59,15.11.71s10.33,0,15.5,0,10-1,15.07-1.23a68.25,68.25,0,0,0,13.15-1.89c8.9-2.19,17.92-3.81,26.72-6.61,6.64-2.11,13.13-4.5,19.68-6.84,7.89-2.82,15.27-6.64,22.66-10.47q6.6-3.42,13-7.34c4.93-3.07,9.72-6.36,14.5-9.65,2-1.36,3.8-2.93,5.66-4.46,7.19-5.89,14.46-11.7,20.25-18.39l19.13,19.13.6-.64v1.92c-1.93,1.93-3.82,3.81-5.7,5.7-3.77,3.79-8.1,6.91-12.18,10.33-3.33,2.79-6.72,5.46-10.13,8.14-4.74,3.73-9.86,6.85-14.81,10.22-10.52,7.17-22,12.65-33.49,18.08a219.54,219.54,0,0,1-25.87,10c-6.32,2.06-12.63,4.34-19.12,5.67-4,.82-8,1.68-12,2.52-4.92,1-9.92,1.52-14.83,2.68-4.52,1.07-9.35.86-14,1.14-2,.12-4,0-6,.06-.27,0-.51.62-.77,1H246c-.26-.33-.52-1-.8-1-5.2-.23-10.45.52-15.59-1-2-.58-4,.42-6.18-.83-1.74-1-4.47.34-6.47-1.2-2.83.73-5.33-1-8.08-1s-5.45-1.31-8.18-1.9A148.55,148.55,0,0,1,181.31,703c-5.35-2-10.8-3.61-16.1-5.77s-10.88-4.34-16.2-6.75a240.86,240.86,0,0,1-22.9-12.38c-6.21-3.66-12.11-7.74-18.11-11.74a204.37,204.37,0,0,1-18.16-14.09c-5.38-4.57-10.42-9.56-15.51-14.46-1.49-1.43-2.48-3.37-3.94-4.83a191.44,191.44,0,0,1-13.14-15c-4.34-5.31-8.36-10.82-12.3-16.43a230.29,230.29,0,0,1-17-29c-1.32-2.62-2.64-5.23-3.83-7.91-2.44-5.49-5-10.92-7.11-16.55-2-5.36-3-11.08-5.17-16.35s-3.28-11-4.77-16.5c-1.3-4.81-1.91-9.84-3.06-14.73-.43-1.82-.23-3.71-.93-5.62s-.58-4-1-6.06c-.85-4.43-.88-9-1.14-13.55-.13-2.16,0-4.33-.07-6.49,0-.28-.62-.53-1-.79Q0,451.5,0,435Z" transform="translate(0.13)"/><path class="cls-1" d="M800,463H623.18c.07,3.14-1,6.28.66,9.4a5.49,5.49,0,0,1,.16,2.43c-.14,11.07,2.86,21.55,6.29,31.89A83.12,83.12,0,0,0,639,525.09a54.46,54.46,0,0,0,3.6,5c7.63,9.45,9.09,10.39,20.87,18.1A52.57,52.57,0,0,0,673,553a74.14,74.14,0,0,0,9.71,3.15c3.88,1,7.82,1.31,11.66,2.07,7.08,1.4,14.09.4,21.12.75,1.67.08,3.38-.67,5.08-.92s3.63.55,5.08-1c3.74.29,7.18-.9,10.68-2,2.67-.82,5.56-1.06,8.12-2.12,6-2.46,12-5,17.67-8a127.79,127.79,0,0,0,18.16-11.72,41.31,41.31,0,0,1,3.83-2.39,5.11,5.11,0,0,1,.62.48.74.74,0,0,1,.21.41v27.64c-2.59,3.46-6.41,5.55-10.12,7.6-8.23,4.56-16.67,8.78-25.76,11.38-4.94,1.41-9.88,2.81-14.93,3.9-4.75,1-9.7,1-14.3,2.77a1.16,1.16,0,0,1-.5,0c-7.41-.74-14.68,1.27-22.08,1.1-2.79-.06-5.37-.87-8.08-1.11s-5.38.37-8.15-.84c-1.89-.83-4.33-.22-6.56-1s-4.92-.28-7-1.26a53.81,53.81,0,0,0-6.56-2.29A102.8,102.8,0,0,1,637.81,568a51.16,51.16,0,0,1-6.38-5.09c-2.22-2-4.2-4.29-6.4-6.32-8.64-8-14.94-17.74-19.92-28.25a116,116,0,0,1-8.26-23.59c-1-4.42-1.78-8.9-3-13.26-.79-2.91-.09-6-1-8.55-1.12-3-.22-5.85-.86-8.64-1.9-8.32-.79-16.73-.85-25.09,0-4.34,1.27-8.67.89-13.08,1.35-1.86.43-4.22,1.15-6a19.2,19.2,0,0,0,.88-5.64,18.48,18.48,0,0,1,1.11-4.54c2.62-6.92,3.92-14.27,7.27-21,1.92-3.84,3.66-7.81,5.57-11.68a108.18,108.18,0,0,1,10.11-15.81c4.91-6.7,10.93-12.4,17.07-17.85A86.49,86.49,0,0,1,658.07,339c3.1-1.35,6.23-2.67,9.34-4a36.3,36.3,0,0,1,9.28-2.81c6-.8,11.89-2.79,18.15-2.28,5.46.44,11,.09,16.49.09,2.17,0,4.51-.53,6.45.14s4.49.11,6,1c1.91,1.16,4.35-.15,5.78,1.82,7.26.74,13.65,4.1,20,7.25a52.89,52.89,0,0,1,13.63,9.39c1.72,1.68,4,2.83,5.51,4.67,4.66,5.81,9.92,11.13,13.46,17.88,1.5,2.85,3.21,5.69,4.75,8.56a53.52,53.52,0,0,1,3.27,8.65c1,2.92,2.31,5.66,3,8.78a29.73,29.73,0,0,0,2.27,7.5c1.06,2-.68,4.45,1.56,5.87.33,3,.64,6.06,1,9.08.29,2.37.77,4.71,1,7.09s.11,4.62.21,6.93c0,.13.53.24.82.36Zm-31.73-27.09c-.44-6.16-.85-12-1.28-17.83a2.32,2.32,0,0,0-.29-.87c-1.21-2.28-1-4.89-1.61-7.31-1.2-4.49-2-9.09-4-13.32-2.67-5.6-4.84-11.42-9-16.29-3.12-3.69-9.21-11.31-12.52-13.12-7.17-3.93-14.06-8.72-22.67-9.16-2.34-1.76-5.2-.27-7.53-1.12-2.73-1-5.4-.86-8.12-.87a90.57,90.57,0,0,0-9.09.79A66,66,0,0,0,677,360.09a66.73,66.73,0,0,0-15,7.31A91.86,91.86,0,0,0,649.41,378c-5.5,5.24-9.49,11.52-13,18.12-5.33,10-6.88,14.55-9.42,25.06-2.16,1.6-.59,4.18-1.7,6.31-1.21,2.33-.83,5.49-1.15,8.39Z" transform="translate(0.13)"/><path class="cls-1" d="M272,0c.12.28.17.75.36.83,2.27.85,4.7-.55,7.13,1,1.73,1.08,4.22.95,6.42,1.37V15a55.48,55.48,0,0,1-6.53-2.16c-7.16-3.38-14.78-3-22.31-2.68a26,26,0,0,0-7.6,2.06,15.33,15.33,0,0,0-6.18,4.21c-2,2.46-4.83,4.93-4.22,8.66.25,1.52-1,2.66-.36,4.3.57,1.45.28,3.24.36,4.9.84,1.59,1.69,3.24,2.56,4.88,2.19,4.1,6.35,6.1,9.85,8.67,3.07,2.26,6.78,3.65,10.22,5.4a100.52,100.52,0,0,1,18.19,11.44c5.15,4.22,9.25,9.46,10.22,16.7.73,5.43,1.18,5.36-.08,11.19a17.12,17.12,0,0,0,0,3.74c-2.06,3.21-3,6.88-6,9.3-1.1.9-4.86,4.65-6.2,5.42-5.25,3-10.77,5-16.92,5-2,0-3.86,1.26-6.09,1a107.27,107.27,0,0,1-17.32-2.81,71.47,71.47,0,0,1-10.32-3.54v-12c2.17,1.09,4,2.09,5.95,3a65.55,65.55,0,0,0,13.63,4.59,36.79,36.79,0,0,0,12.1.6c4.22-.51,8.57-1.12,12.49-3.53,4.23-2.61,6.46-6.06,7.73-10.79a17.13,17.13,0,0,0-2.15-14.33c-2.43-4.07-6.2-6.75-10.24-9.23-8.89-5.44-18.52-9.68-26.83-16-5.9-4.49-10.91-9.7-12-17.81-.5-3.54-1.3-6.76.11-10.21.41-1,.06-2.29.06-3.24,2-2.69,2.88-5.73,4.85-8.26a26.34,26.34,0,0,1,5.66-5.59,43.18,43.18,0,0,1,13.8-6.56c1.39-.38,2.94-.11,4.39-.3.47-.06.87-.62,1.3-1Z" transform="translate(0.13)"/><path class="cls-2" d="M258,544c-3.67,0-6.52.15-9.33,0-2-.14-4.07.65-6.19-.79-1.58-1.08-4.24.84-6-1.16-13.86-3-11.76-2.62-23.82-8.87a39.45,39.45,0,0,1-10.09-7c-1.08-1.09-2.45-1.89-3.54-3s-1.79-2.27-2.76-3.34a40.85,40.85,0,0,1-3.49-3.57c-4.13-5.85-8.81-11.36-10.89-18.49a28.76,28.76,0,0,0-2.31-5.52c-2.07-3.8-2.41-8-3.5-12a55.09,55.09,0,0,1-2.14-16.65c.07-1.85-.73-3.71-.9-5.58s0-3.66,0-5.49c-.07-5,.78-10.08,1.26-15a89.39,89.39,0,0,1,3.5-15.93c1.39-4.81,3.57-9.22,5.14-13.89a46.84,46.84,0,0,1,7.23-13,75.56,75.56,0,0,1,14.53-15A78.81,78.81,0,0,1,218.64,371c7.16-3.42,14.18-6.1,21.15-6.87,2.73-2.18,6.15-.61,9.26-1.77,2.93-1.09,6.58-.23,9.91-.23s6.79-.56,10,.12c5.81,1.25,12,.8,17.44,3.69,9.21,1.39,16.59,6.76,24.24,11.41,2.63,1.6,4.64,4.29,6.75,6.64,1.94,2.17,4.75,3.6,5.69,6.63,4.41,3.87,6.38,9.3,8.94,14.3a74.76,74.76,0,0,1,6,16.48c.77,3.2,1.41,6.43,2,9.67a65.46,65.46,0,0,1,1,7.08c.17,2.32-.08,4.67.08,7,.11,1.54.75,3,.92,4.59a40.74,40.74,0,0,1,0,4.49c0,4.88-1.72,9.65-1,14.58-1.92,6.74-2.25,13.84-4.94,20.45-3.4,8.36-6.71,16.66-12.4,23.89-3,3.81-5.55,8-9.32,11.07-6.32,5.14-13,9.79-20.59,13a123.11,123.11,0,0,1-15.4,5.13C271.28,544.12,264.24,543.87,258,544Z" transform="translate(0.13)"/><path class="cls-1" d="M444.17,335.09H475V366c0,3.5.12,7,0,10.5s.72,6.83-.64,10.26l1.09.32a126.62,126.62,0,0,1,7.53-17.9,88.81,88.81,0,0,1,8-12.62,67.88,67.88,0,0,1,7.43-8.41A59.36,59.36,0,0,1,516.37,336a82.05,82.05,0,0,1,13.29-4.22c4-.89,7.76-.58,11.63-.75s8.08-.54,12,.11c3.31.56,6.84.75,9.93,2.49a10.69,10.69,0,0,0,2.81.55v32.1c-1.17-.56-1.91-1-2.7-1.28-3.61-1.35-6.86-3.42-10.79-4.2-2.89-.57-5.75-1.6-8.71-1.76a78.21,78.21,0,0,0-11.49,0c-4.65.43-9.31,1.15-13.49,3.59-3.21,1.87-6.57,3.48-9.76,5.38a34.22,34.22,0,0,0-3.72,3.12c-8,6.49-13.37,14.85-17.36,24.22-1.39,3.26-3.2,6.35-4.44,9.66-1.4,3.76-2.35,7.69-3.56,11.53-1.37,4.34-1.73,8.89-2.89,13.28-.85,3.23-.68,6.71-1.12,10.05-2,15.16-.71,30.38-.93,45.58-.23,15.49,0,31,0,46.49v48H444.17Z" transform="translate(0.13)"/><path class="cls-1" d="M519.82,114.9H509.09c-4-6.14-7.76-12.58-12.28-18.39-3.32-4.27-5.85-9-9.17-13.21s-5.68-8.76-8.87-12.81c-3.35-4.25-5.88-9-9.15-13.23s-5.66-8.77-8.87-12.82c-5.32-6.72-9.45-14.22-14.71-21a69.41,69.41,0,0,1-4-6.59,56.28,56.28,0,0,1,.88,6.52q.07,44.75,0,89.5v2H432V2.12c1.91,0,3.85-.1,5.79-.12s3.67,0,6,0c.82,1.2,1.79,2.62,2.77,4,4.94,7.09,9.73,14.3,14.68,21.37,3.44,4.91,6.72,10,10.35,14.79,3.49,4.62,6,10,9.73,14.4,4.27,5,7.25,10.81,11.42,15.88,4,4.91,6.69,10.93,10.49,16.07,2.26,3.06,4.68,6,6.66,10.47-.17-4.49,1-8-.7-11.39a5.78,5.78,0,0,1-.16-2.43V3.66c0-.13.14-.27.22-.4l1.16-1.16h9.43Z" transform="translate(0.13)"/><path class="cls-1" d="M209.73,114.87H198.46L185.8,81.22c-.22,0-.38-.11-.44-.06-.26.21-.48.67-.72.67h-46.7l-12.15,33h-12l43-112.66h11q21,55.63,42.21,111.67C210.07,114.08,209.84,114.44,209.73,114.87Zm-48-100.25c-1.52,2-.39,3.82-1.28,5.6-1.72,3.42-2.7,7.2-4,10.82-1.8,4.92-3.64,9.82-5.44,14.74-2.48,6.8-4.72,13.69-7.56,20.37-.73,1.73-2,3.6-1.26,5.71h39.66a4.08,4.08,0,0,0,.13-1.51c-1.52-4.2-3.1-8.38-4.67-12.56-2.43-6.49-5.09-12.91-7.24-19.49-2.4-7.34-5.91-14.31-7.28-22-.11-.56-.66-1.06-1-1.68Z" transform="translate(0.13)"/><path class="cls-1" d="M328,71v43.85h-9.6c-1.81-3.53-1.39-7.44-1.39-11.3V3.5l1.5-1.5c11.28,0,22.78-.59,34.2.19,9,.61,17.52,3.75,23.91,10.89,3,3.34,6.15,10.81,6.43,15.34.09,1.38.77,2.71.92,4.09A10.49,10.49,0,0,1,384,37c-1.23,3.47-.89,7.22-2.1,10.62a26.07,26.07,0,0,1-3.92,7.82A70.27,70.27,0,0,1,369,64c-3.49,3-7.92,4.19-12.15,5.58a30.11,30.11,0,0,1-8.4,1.39C341.8,71.13,335.14,71,328,71Zm42-48.5a41.89,41.89,0,0,1-3.07-3.1c-4-5-9.81-6.58-15.44-7.19C343.81,11.37,336,12,328.23,12V60.93a7.09,7.09,0,0,1,.71.07c5.32,0,10.67-.28,16,.1,3.66.26,7-1.07,10.56-1.27,2.11-.12,4.14-1.91,6.19-3,6.27-3.31,9.38-9.08,10.17-15.61.71-5.83,1.08-12-1.8-17.62C369.88,23.35,370,23,370,22.5Z" transform="translate(0.13)"/><path class="cls-1" d="M608.56,104.82l1.22,5.18-1.11,4.91h-56.5V2.47c3.91-.66,42.94-.87,54.68-.27V12H562.32c.24,2.74.63,5.24.65,7.73.07,9.5,0,19,0,28.49a30.19,30.19,0,0,1-.52,3.7l.94,1h40.4v8.75L602.33,63H562.48a44.82,44.82,0,0,1,.5,4.65v37.1Z" transform="translate(0.13)"/><path class="cls-1" d="M656.48,11.91H623.12V2.19h75.71c0,1.37.13,3,.16,4.56s0,3.29,0,5.1H666.12v103h-9.75L655,113.5V13.5C655,13.16,655.65,12.81,656.48,11.91Z" transform="translate(0.13)"/><path class="cls-1" d="M395.22,116c-6.16-1.8-5.18-6.35-5.21-10.48l4.38-4.34h5.5l5,4v6.33l-2.93,3.9C400.29,116.55,397.33,115.93,395.22,116Z" transform="translate(0.13)"/></svg>