<svg id="Capa_1" data-name="Capa 1" xmlns="http://www.w3.org/2000/svg" viewBox="0 0 1238 224.31"><defs><style>
  .cls-1{fill:#000000;}</style></defs><title>Azurelogo</title><path class="cls-1" d="M-323,315c3-1.34,3.77-4.66,5.93-6.79,1.9-1.86,3.19-4.32,4.82-6.46,2.72-3.55,5.73-6.91,8.16-10.64,1.57-2.42,3.92-3.94,5.08-5.52l76-29.77V232.94c2.4.23,3.75,2,5.3,3,5.77,3.87,11.3,8.09,16.94,12.16,4.37,3.15,8.79,6.31,13,9.66,3.87,3,7.8,6,11.84,8.83,4.94,3.44,9.79,7,14.59,10.62,2.53,1.91,5.16,3.69,8,5.71a16.49,16.49,0,0,0,5.74-.81,30.5,30.5,0,0,1,6.06-.95c2.31-.11,4.26-1.73,6.57-1.18s3.88-1.24,6.09-1.12c2,.11,3.92-1,6.08-1,2,0,3.94-1.28,6.09-.88,1.81-2.08,4.63,0,6.4-1.39s4,.1,6-1.45c1.36-1.08,4.06.51,6.07-1.17V412.35l-54.6,44.9-84-28c.17-.11,0-.06-.06,0a.73.73,0,0,0-.21.41c0,9,0,18,0,27-1.15.28-1.36-.75-1.89-1.16-.78-.61-1.4-1.42-2.15-2.09s-.69-1.52-1.12-2c-2-2.34-4-4.73-6.07-7-3-3.23-5.68-6.75-8.63-10-3.89-4.32-7.53-8.88-11.31-13.3-3.57-4.17-7.27-8.26-10.61-12.59-4.12-5.35-8.93-10.1-12.9-15.59-2.25-3.11-5.47-5.51-7.32-8.89,4.63-1.16,9,1.35,13.58.9.32,0,.8-.1,1,.07,1.48,1.67,3.43.95,5.12.85,1.87-.11,3.17,1.36,5.09,1.15,3.71-.42,7.28,1.66,11.07.93,2,1.41,4.46.53,6.55,1.11a23.6,23.6,0,0,0,7.11.89c.33,0,.85-.14,1,0,1.27,1.67,3.11,1.08,4.6.89,1.92-.24,3.25,1.4,5.09,1.1,3.6-.59,7,1.68,10.57,1,2.21,1.37,4.87.39,7,1.14,2.58.9,5.07.75,7.63.85.33,0,.82-.14,1,0,1.32,1.43,3.06,1.12,4.6.91,1.89-.25,3.31,1.29,5.09,1.05,3.61-.49,7,1,10.56,1.25,2.48.19,5.28.07,7.53.94s4.61.16,6.6.94a18.45,18.45,0,0,0,6.63.88c.67,0,1.56-.28,2,0,2.21,1.83,5.07,0,7,1.09,2.45,1.35,4.81.41,7.28,1,.57.52,1.16,1.61,2.27.49V284.05c-1.2,0-2.74-.47-3.38.09-2,1.78-4.94-.17-6.76,1.86-6.42-.1-12.35,2.91-18.74,3-2,1.55-4.7.22-6.47,1.21s-3.78,0-5.08,1c-1.59,1.19-3.41.13-4.63.91-1.72,1.09-3.48.52-5.13,1-2.15.59-4.37.68-6.47,1.26a86.17,86.17,0,0,1-12.39,2.51c-2.69.33-5.25,1.76-8.06,1.17-2,1.93-4.84,1.07-7.23,1.76a47.36,47.36,0,0,1-8,1.47,37.45,37.45,0,0,0-6.84,1.39,52.74,52.74,0,0,1-12,2.25c-2.76.16-5.25,1.87-8.07,1.13-3.82,2.07-8.2,2.1-12.28,2.79-4.81.81-9.48,2.34-14.36,2.42v72.9c-3.83-.75-7.55-1.84-11.46-2.22-3.67-.36-7.19-1.95-11-1.92-.55,0-.73-1.1-1.55-1Z" transform="translate(323 -232.94)"/><path class="cls-1" d="M915,384c-1-.08-.92.62-1,1.29a16.74,16.74,0,0,1-9,13.18c-4.55,2.51-9.2,4.76-14.61,4.53-2.39,1.41-5,1-7.58,1a50,50,0,0,1-19.71-4.37V385.35c1-.74,1.49-.08,2.18.39,4.48,3,9.31,5.1,14.81,5.25,2.16.06,4.33-.07,6.5,0,4.12.19,7.61-1,10.22-4.32a15.66,15.66,0,0,1,1.19-1.2c0-.85,0-1.83,0-2.81.07-3.23-1.62-5.06-4.29-6.79-4.11-2.66-8.79-3.93-13.19-5.59a35.84,35.84,0,0,1-13.4-8.7c-.58-.6-1.18-1.18-1.77-1.77-1-.7-.13-1.78-.63-2.75a17,17,0,0,1-.71-13.86,8.37,8.37,0,0,1,1.27-3c3.72-4,7.4-8.37,12.89-9.8,3.61-.95,7.12-2.4,11-2.55a83.87,83.87,0,0,1,15.57,1.12c2.09.31,4.06,1.4,6.29,2.21V345c-2.46,0-3.94-1.39-5.58-2.12-5.79-2.57-11.8-2-17.71-1.72a8.25,8.25,0,0,0-7.68,5.75c.37,1.44-.3,3.29.53,5.31,1.47,3.59,4.61,4.79,7.63,5.69a85.33,85.33,0,0,1,15.39,6.3,21.87,21.87,0,0,1,10,10.72c.6,1.34.28,2.55.47,3.8.1.67,0,1.37,1,1.29Z" transform="translate(323 -232.94)"/><path class="cls-1" d="M770,350.89c0,1.17.08,2.34,0,3.5a45.66,45.66,0,0,1-.73,7.65c-.58,2.36-.46,5.24-1.45,7.43s-1.25,4.78-2.61,6.94-1.89,4.6-3.24,6.63a47.14,47.14,0,0,1-12.71,13,49.59,49.59,0,0,1-15.74,6.63c-5.41,1.41-11.33,2.27-17,1.16-4.26-.84-8.7-1-12.8-2.83a65.16,65.16,0,0,1-11.13-5.78,40.7,40.7,0,0,1-10.76-11,46.32,46.32,0,0,1-7-15.62,108.5,108.5,0,0,1-1.8-10.71,44.63,44.63,0,0,1,0-11.47,83.76,83.76,0,0,1,4.77-19c4.6-11.78,14.16-20.3,25.34-25,3.11-1.31,6.46-2.68,10-2.37,2.2.19,3.85-1.54,6.1-1.13,1.94.35,4-.13,6,.11,7.47.89,14.94,1.81,21.53,5.95,2,1.26,4.14,2.34,5.79,4.11,3.23,3.47,7.14,6.35,9.53,10.56,2.53,4.44,4.94,8.88,6,14,.56,2.72,1.22,5.49,1.75,8.22C770.43,344.8,770,347.89,770,350.89Zm-57.17,37.17c1.69-.34,3.62.33,5.65.84,4,1,8-1,12-.93,5.1-2.58,10.24-4.6,14-9.67,4.17-5.55,6.75-11.54,7.2-18,.47-6.77.86-13.67-.56-20.6A39.36,39.36,0,0,0,746.91,328a22,22,0,0,0-7.2-8.11c-4.08-2.61-8-4.93-13-4.87-4.58-2.72-9.05-.08-13.52.43-2.2.25-4.28,1.66-6.39,2.58s-2.8,3.68-5.33,4c-.72,2.49-3.3,3.56-4.42,5.67-1.38,2.59-3.18,5.17-3.85,7.86a68.71,68.71,0,0,0-2.15,10.12c-.58,6.21.29,12.39,1,18.56,0,.28.41.5.49.79a33.69,33.69,0,0,0,6.25,12.44,29.46,29.46,0,0,0,5.6,5.66C706.9,385.06,709.86,386.1,712.83,388.06Z" transform="translate(323 -232.94)"/><path class="cls-1" d="M435.08,402V301H440c10,0,20,.19,30-.1,3.64-.11,7,1,10.58,1.12,3.33.07,6.56,1.21,9.6,2.18a56.2,56.2,0,0,1,13.28,6.55c5.18,3.37,8.56,8.14,11.5,13.22,2.07,3.58,3.11,7.71,4.12,11.77,1.94,7.8.54,15.72,1,23.57-1.37,3.79-1.92,7.79-3.31,11.61-2.93,8-8.41,14.06-14.64,19.35-5.4,4.59-11.28,7.87-20.91,9.72-2.08,2.09-5,.32-7.35,1.57-2.19,1.15-4.86.39-7.31.41C456.15,402,445.83,402,435.08,402Zm17-14c3.59,0,6.79-.3,9.91.08s6-1.65,9.08-1.06,5.89-.41,8.49-1.26c13.69-4.51,22-15.71,22.41-29.63.12-4.16,0-8.33,0-12.49,0-1,.4-2.57-.07-2.9-1.88-1.32-.35-3.41-1.48-5-.91-1.27-.77-3.47-2-4.61s-1.91-3-3-4.35a22.89,22.89,0,0,0-4.19-4.22c-3-2.36-6.83-3.13-9.63-5.36-9.88-2.11-19.72-.89-29.6-1.25Z" transform="translate(323 -232.94)"/><path class="cls-1" d="M117.88,401.84h-18c-3.76-8-5.55-17-9.64-25.63H51.42c-2.56,8.42-6.45,16.68-8.67,25.57H23.92C36.69,368,49.16,334.4,61.77,301H80.5c2.77,5.07,4.38,10.71,6.43,16.15,1.19,3.16,2.3,6.4,3.48,9.56C92.66,332.82,94.67,339,97.1,345c2.54,6.28,4.68,12.71,7.28,19,2.07,5,3.76,10.1,5.62,15.16,1.33,3.61,2.65,7.23,4,10.83s2.68,6.89,4,10.35A4.42,4.42,0,0,1,117.88,401.84ZM70.63,318.59c-2.72,7.59-5.2,14.75-7.42,21.94S57.87,354.51,56,362c5.39,0,10.37,0,15.34,0s9.78.1,14.5-.07c-2.5-7.55-4.5-14.87-7.36-21.84S74.11,325.68,70.63,318.59Z" transform="translate(323 -232.94)"/><path class="cls-1" d="M784.16,330.11H800v12.18c4.05-5.25,8-9.8,13.71-12.24a19.64,19.64,0,0,1,8.64-2c3.37.16,6.71-.3,10.11.87s7.84,2.91,10.28,5.33a61,61,0,0,1,5.24,5.33c2.44,3.11,4.05,9.49,5.16,13.84,1.46,5.72,1.25,11.49.7,17.08-.94,9.46-4,18.38-11.11,25.3a23.72,23.72,0,0,1-15.48,7.12c-1.57.09-2.51,1.26-4.08,1.16-7.84-.51-15-2.55-20.39-8.72-.89-1-.77-2.78-2.6-3.19v42.69a64.59,64.59,0,0,1-7.92.17c-2.64,0-5.28,0-8.08,0ZM800.76,355c.94,1.84-.59,3.53-.69,5.37a70.49,70.49,0,0,0,0,12.95c.57,4.3,1.9,8.48,5.31,11.77a31.8,31.8,0,0,0,7.43,4.93c2.55,0,5.53,0,8.51,0a5.63,5.63,0,0,0,2.37-.29c3.88-1.94,7.26-4.32,9.5-8.32,2.37-4.24,3.09-8.81,3.7-13.43a72.85,72.85,0,0,0,.07-7.47c.06-2.42-1.8-4.53-.93-6.89-.38-.38-.76-.58-.83-.86-1.17-4.17-4.61-6.57-7.5-9.32a5.07,5.07,0,0,0-3.87-1.46c-1.06.1-2.24.44-3.21-.69a1.75,1.75,0,0,0-2.24-.07c-1,1.08-2.09.72-3.19.82-4.07.36-7.54,2.91-10.34,6.37C803.37,350.26,802.68,352.53,800.76,355Z" transform="translate(323 -232.94)"/><path class="cls-1" d="M595.19,371H546a21,21,0,0,0,7.51,15.9c2.31,2,9.54,4,12.78,4.11a33.74,33.74,0,0,0,19-4.76,27.48,27.48,0,0,1,4.55-1.63v12c-2.71,3.13-6.67,4.22-10.6,5.31-2.63.73-5.5.56-8,1.22a28.92,28.92,0,0,1-8.13.74c-1.73,0-3.57.74-5.25-.57s-4,.67-5.42-1.37c-1.88.52-3.38-.84-5-1.29-2.16-.6-4.13-2.23-5.9-3.75-5.35-4.57-8.72-9.31-10.46-15.62-1.81-6.55-3-13.4-1.89-20.11.84-4.94,1.63-10.06,4.54-14.59,2.64-4.11,4.82-8.27,9.12-11.21a40.63,40.63,0,0,1,10.26-5.48c2.85-.94,5.63-2.14,8.68-1.91s6-.44,9.16.77c2.09.81,4.73.33,6.59,2.2,2.54-.75,4,1.52,5.36,2.62,6.28,5,9.59,11.79,11.29,19.75C595.41,359.15,594.39,364.81,595.19,371Zm-16.37-12.12c.88-4.61-.77-8.42-2.9-11.9-2-3.3-4.65-6.36-9.14-5.92-1.37.13-1.86-1.33-2-1.3-3.83,1.64-7.17,1.21-9.8,3.2a18.18,18.18,0,0,0-6,7.19c-1.25,2.8-2.68,5.47-3,8.74Z" transform="translate(323 -232.94)"/><path class="cls-1" d="M367.49,389.81a110.86,110.86,0,0,0,11.37-5.56c.06,2.66.11,4.59.13,6.53s0,3.66,0,5.54c-2.38,3.52-6.34,4.73-10,5.54-6.09,1.34-12.3,2.65-18.63,2.11a38.61,38.61,0,0,1-14.45-3.67,29.67,29.67,0,0,1-16-20.65c-.58-2.5-.29-5.16-1.3-7.43-1.1-2.46-.27-4.86-.57-7.26a7.17,7.17,0,0,1,0-3c1.31-4,1.44-8.32,3-12.25a57.46,57.46,0,0,1,3-5.76c.53-1,5.77-6.16,6.64-7.18a20.85,20.85,0,0,1,7.71-5.57A33,33,0,0,1,351.52,328c4.68,0,9.21.25,13.71,1.9a29.74,29.74,0,0,1,5.27,3c5.89,3.58,9.44,8.81,11.48,15.19A35.47,35.47,0,0,1,384,361.23c-.2,3.13,0,6.28,0,9.6H335.47c-1.53,2.27,1.25,4,.53,6,2.07,4.37,3.78,8.86,8.71,11.21,5.56,2.65,11.31,3.2,17.28,2.93C363.64,389.55,365.67,390.15,367.49,389.81Zm-19-48.9c-9.2,3.31-11.82,10.21-13.52,18.09h32.27a.78.78,0,0,0,.42-.18,2.32,2.32,0,0,0,.32-.36c0-8.77-2.25-12.9-9.46-17.41-1.87-.23-3.93.53-5.55-1.19C351.38,341.57,349.33,340.81,348.52,340.91Z" transform="translate(323 -232.94)"/><path class="cls-1" d="M215.57,390a55.49,55.49,0,0,1,6.25,0c7.62.9,13.47-5.47,15.26-12.79a43.79,43.79,0,0,0,.92-10.59q0-17.23,0-34.46v-2.05h16.78v71.71H238.11V391.23c-1.55,1.91-2.4,3-3.29,4.25-2.74,3.84-6.94,6.1-11.33,7.37-3.5,1-7.35,2-11,1a24.07,24.07,0,0,0-5.29-.86c-4.91-1.95-8.66-4.32-11.55-7.87a7.77,7.77,0,0,1-1.71-2.29C192.16,388,190,383.28,190,378q-.05-22.47,0-44.95c0-1-.29-2,.34-3H207V335c0,13.32.1,26.64,0,40C206.89,381.68,209.72,386.51,215.57,390Z" transform="translate(323 -232.94)"/><path class="cls-1" d="M123.68,343.18l-1.55-1.55V330.12H181a47.58,47.58,0,0,0,0,4.81,5,5,0,0,1-1.47,3.87c-4.12,4.31-7.12,9.46-10.77,14.11-4.17,5.32-8,11-11.94,16.46-3.33,4.65-6.78,9.28-10.46,13.7-1.5,1.8-2.37,4.08-5.06,5.78h39.42v13H119.08c-.06-3.08-.75-6.29,1.62-9,1-1.21,2-2.49,2.89-3.78C128,383,133,377.35,137.2,371.14c3.78-5.65,8.17-10.83,11.88-16.53,2.58-4,5.87-7.49,9-11.43Z" transform="translate(323 -232.94)"/><path class="cls-1" d="M669.75,330.17,642,401.88H624.34c-2-2-1.94-4.68-2.84-7-2.32-5.87-4.31-11.86-6.51-17.78-2.84-7.65-5.64-15.31-8.48-23-2.78-7.49-5.3-15.1-8.48-22.45-.17-.39,0-.94.09-1.58h17.45c3.44,9.41,6.3,19.2,9.25,28.92s6.9,18.93,8.51,28.9l18.77-57.82Z" transform="translate(323 -232.94)"/><path class="cls-1" d="M289,402H272.53c-.78-4.25-1-55-.36-71.82H289v12.54a36.92,36.92,0,0,1,6.88-9.15c2.65-2.4,5.28-4.63,9.12-4.55,3.13-2.48,6,.36,9,.5.25,0,.47.44.87.84v14.38c-2,1.11-3.8-.6-5.59-1.17a6.17,6.17,0,0,0-3.23-.49c-2.23.6-4.54.82-6.72,1.85a12.81,12.81,0,0,0-5,4.51,29,29,0,0,0-4.47,11.67c-1.19,6.75-.5,13.42-.73,20.11S289,394.82,289,402Z" transform="translate(323 -232.94)"/></svg>