<svg id="Capa_1" data-name="Capa 1" xmlns="http://www.w3.org/2000/svg" viewBox="0 0 1444.22 379.12"><defs><style>.cls-1{fill:#fff;}</style></defs><title>github</title><path class="cls-1" d="M-344,481c-2-2.62-5.27-2.21-8-2.89-2.2-.55-4.64-.11-7-.11a6.15,6.15,0,0,0-1.5,0c-3.39.88-4.22,3.53-1.8,6.18a33,33,0,0,0,7,5.91c3.16,2,6.31,3.9,8.51,7.38,1.83,2.9,4.32,5.47,6.24,8.44a78.91,78.91,0,0,1,5.61,11.18c2.75,6.21,6.3,11.91,12.18,16a93.89,93.89,0,0,0,8.79,5.43c3.31,1.82,7,2.49,10.59,3.38,7.1,1.76,14.38,1.13,21.57.95,4.07-.11,8.12-1.22,12.54-1.93.07.92.2,1.83.2,2.75q0,16.75,0,33.5c0,5-1.75,7.34-6.35,8.78-4,1.27-4,1.12-8.53-.34a165,165,0,0,1-29.21-12.75c-7.1-3.93-14.2-7.95-20.63-13-5-4-10.14-7.85-15.1-11.92a129.31,129.31,0,0,1-14.89-14.4c-5.16-5.85-10.12-11.93-14.77-18.27-4.2-5.73-7.82-11.77-11.46-17.81-2.3-3.83-4-8-6.08-12-4.14-8-7-16.42-10-24.86-2-5.72-3-11.72-4.88-17.47-.85-2.52-.45-5.44-1.17-8-.82-3-.39-6.11-1.35-8.94s.23-6-.68-8.72c-1.53-4.54-.67-9.09-.85-13.62s0-9,0-13.5c0-2.24,1.37-4.2,1.1-6.6a13.81,13.81,0,0,1,.73-6.64c.86-2.26.17-5,1.06-7.56s.65-5.38,1.15-8,1.3-5.12,2-7.68,1.24-5.14,2-7.66,1.93-4.88,2.66-7.39c3-10.28,7.54-19.95,12.57-29.28a154.14,154.14,0,0,1,12.81-20.25c3.89-5.12,8-10,12-15a153.38,153.38,0,0,1,16.13-16.71,180.9,180.9,0,0,1,28.19-21.19c7.89-4.82,16.37-8.7,24.68-12.8,3.58-1.76,7.39-3.09,11.14-4.49s7.58-3,11.38-3.78c5.09-1,10.05-2.55,15.17-3.47,4.41-.8,8.93-1.91,13.34-2.5A92.21,92.21,0,0,1-234.37,208c8.33,0,16.67-.1,25,.05,4.7.09,9.39.62,14.09,1,2.54,2.26,5.87.27,8.79,1.75,2.42,1.22,5.73.51,8.44,1.35,3.87,1.2,7.87,1.84,11.71,3.09,5.72,1.87,11.48,3.65,17.07,5.87a166.47,166.47,0,0,1,18.06,8.28c6.27,3.42,12.73,6.63,18.49,10.8,4.89,3.55,10,6.89,14.53,11,5.06,4.56,10.7,8.51,15.32,13.56,6.75,7.37,13.19,15,19.29,22.93,9.11,11.9,15.45,25.2,22.06,38.43,1.85,3.7,3,7.75,4.54,11.62s1.62,8.25,4,11.85c.06,5.59,2.75,10.63,3.21,16.24.36,4.36,2.07,8.65,1.79,13.19,1.79,2.87.95,6.05.93,9.09,0,3.26,1.46,6.26,1.14,9.59s.06,6.67-.11,10c-.13,2.54-.75,5.05-.92,7.59s.49,5.15-.19,7.45a33,33,0,0,0-.88,6.63,46.78,46.78,0,0,1-1,6.08c-1.9,8.51-3.56,17.08-6.21,25.42-1.78,5.6-3.84,11.1-5.92,16.56-2.18,5.74-5.44,11.08-8.28,16.56a151.22,151.22,0,0,1-14.06,22.2c-4.2,5.51-8.4,11-13.06,16.11-2.39,2.64-4.53,5.57-7.19,8-10,9-20.05,17.84-31.61,25a226.87,226.87,0,0,1-21.88,12.45,149.57,149.57,0,0,1-23.19,9.16c-6.29,1.77-11.74-4-11.68-8.81.23-19,.38-38,0-57-.18-8.11-1.64-16.23-5.84-23.53-1.92-3.35-3.86-6.64-7-9-.15-.11,0-.62.05-1.39.92,0,1.86,0,2.8,0,2.07-.07,4.09.2,6.14-.9,1.6-.86,4,.83,5.53-1.09,4.83.14,9.15-2.31,13.77-2.87,3.7-.45,6.66-2.55,10.2-3.31a28.55,28.55,0,0,0,8.84-3.91c2.78-1.74,5.72-3.36,8.28-5.28a76.57,76.57,0,0,0,15-14.57c5.71-7.43,9.38-15.71,12.36-24.42a66,66,0,0,0,2-6.67c.49-2.16.5-4.44,1.07-6.57,3.11-11.6,2.1-23.45,1.78-35.18-.18-6.78-2.43-13.43-4.9-19.89-2.72-7.11-7.13-13.14-11.41-19.27a25.92,25.92,0,0,0-3.3-3.36c4-8.38,3.87-17.2,3.83-26s-2.55-17.09-5.48-25.66c-3,0-6.4-.46-9.59.11a64,64,0,0,0-13,3.47c-5.29,2.16-10.4,4.68-15.48,7.31-4,2.09-7.83,4.47-11.62,6.89-2.19,1.39-3.75,2.91-6.76,1.36-2.14-1.1-5.4-.12-7.4-1.33-2.26-1.36-5,.33-6.78-1.82-3.86-.33-7.79-.32-11.57-1.07-9.67-1.92-19.41-.55-29.1-.86-3-.09-6-.5-9.15.76-2.71,1.09-6-.3-9.08,1-1.76.76-4,.6-6.06,1a114.7,114.7,0,0,0-13.76,3.07c-1.09.33-2.85-.43-3.9-1.21-6.65-5-14-8.73-21.45-12.23a91.47,91.47,0,0,0-16.2-5.6c-4.44-1.14-8.77-.42-13.28-.94a102.13,102.13,0,0,0-4.47,15.21,85.64,85.64,0,0,0-.92,9.11c-.19,2-1.45,3.94-.94,6.09,1.5,6.27.86,12.94,3.71,19a3.6,3.6,0,0,1-.87,4.42c-6.37,6.12-9.64,14.23-13.81,21.76-.42,4.39-2.62,8.29-3.22,12.72-.43,3.21-.11,6.57-1,9.56a21.32,21.32,0,0,0-.68,9.61c.82,4.72.27,9.48,1,14.09s1.19,9.06,2.24,13.52a105.34,105.34,0,0,0,3.77,12.46,69.52,69.52,0,0,0,9.71,18,74.35,74.35,0,0,0,20.18,18.66,95.9,95.9,0,0,0,9.81,5.31,87.08,87.08,0,0,0,14.72,5.42,149.75,149.75,0,0,0,15.68,3.37c2.54.38,5.05.68,7.6.9,1,.09,2,.83,3.15,1.36-3.54,3.29-5.59,7.5-7.6,11.7a34.34,34.34,0,0,0-3.56,13.59c-3.73,1.39-7.39,3.29-11.27,4-2.78.51-5.64,1.44-8.5,1.22s-5.81,1-8.66-.82c-1.06-.68-2.93-.11-4.65-.11h.22a2.78,2.78,0,0,0-.3-.76c0-.06-.4.1-.61.17a1.86,1.86,0,0,0,.68.59,19,19,0,0,1,.22,3.63c-1.08.44-2.47,1.56-3.28,1.24-1.82-.72-3.35-2.17-4.78-3.17.32-3,2.69-2.34,4.62-3.36a30.42,30.42,0,0,1-4.63-2,68.44,68.44,0,0,1-7.26-5.26,34.31,34.31,0,0,1-7.36-9.36c-3.88-6.81-9-13.09-14.79-16.56C-340.08,482.23-341.81,480.82-344,481Z" transform="translate(415.05 -207.97)"/><path class="cls-1" d="M175.84,427c-9.54,0-19-.16-28.47.06-6.14.14-8.66-.76-8.45-8.65.31-11.82.09-23.66.06-35.49,0-1.53.13-2.83,1.45-3.94a3.33,3.33,0,0,1,2.62-1c.66.06,1.33,0,2,0h80c4.66,0,5.95,1.25,5.95,6q0,61.5,0,123a7,7,0,0,1-4.51,7.09c-4.64,2.1-9,4.85-13.67,6.85a148.12,148.12,0,0,1-18.45,6.18c-3.59,1-7.41,1.14-10.82,2.81a2.91,2.91,0,0,1-1,.08c-3.86.33-7.81.25-11.57,1.08-8.35,1.84-16.75.41-25.1.91-4.9.3-9.65-1.75-14.58-1-2.56-2.21-5.87-.3-8.8-1.72-2.45-1.18-5.69-.61-8.44-1.35-4.77-1.28-9.46-2.87-14.12-4.51A69.94,69.94,0,0,1,91.91,520c-6.92-3.46-13.6-7.31-19.23-12.75-1.37-1.32-3.22-2.18-4.48-3.59C62.92,497.68,57.29,492,54,484.53c-2.85-2.66-4.22-6.32-5.44-9.73-1.09-3.06-2.8-5.82-3.74-9S43,459.6,42,456.5a111.44,111.44,0,0,1-3.16-13.22c-.78-4.72-2.08-9.35-1.87-14.19.09-2-1.5-3.49-1.08-5.6a17.24,17.24,0,0,0,0-5.48,28.38,28.38,0,0,0-.89-4.78,10.44,10.44,0,0,1-.05-3c0-5.33.09-10.67,0-16-.15-6.89,1.75-13.67,1-20.58,1.28-2.58.93-5.35,1-8.08a48.42,48.42,0,0,1,1.2-7.54c.65-3.39.47-7.05,1.9-10.16s.94-6.53,2.84-9.33c0-4.5,2.2-8.42,3.63-12.5A103.54,103.54,0,0,1,52,314.3,114.33,114.33,0,0,1,62.3,298a78.1,78.1,0,0,1,12.94-13.52A79.25,79.25,0,0,1,93.9,273a120.2,120.2,0,0,1,16.52-6c3-.86,6.12-1.31,9.18-1.95,16.27-3.39,32.77-1.6,49.16-2,2.35-.05,4.72.66,7.09.93s4.91-.66,7.08,1c4.55-.37,8.79,1.32,13.15,2.09a77.45,77.45,0,0,1,22.58,8.17,3.06,3.06,0,0,1,1.26,2.4c-.13,2.54-.16,5.22-1,7.56-1.89,5.17-2.43,10.63-3.85,15.89C213.47,307,212.38,313,211,318.92c-.6,2.56-3,3.73-5.75,2.78a114.85,114.85,0,0,0-19-4.88c-2.38-.39-4.84-.3-7.09-.92-5.35-1.48-10.74-.74-16.11-.88s-11-.25-16.49,0a63.47,63.47,0,0,0-13.48,2.4,51.44,51.44,0,0,0-16.71,7.87A47.2,47.2,0,0,0,101,343.84q-2.12,4.62-4,9.34c-1.2,3-1.88,6.21-2.88,9.3-.81,2.54-.77,5.35-1.15,8-.29,2-.68,4.05-1,6.09s.62,4.19-.93,6.14c-.49.62-.08,1.94-.08,2.94,0,8.17-.07,16.33,0,24.5,0,2.2.75,4.38.92,6.59s-.78,4.88.23,6.36c1.42,2.1-.42,4.74,1.76,6.32-.15,3.39,1.28,6.45,2,9.67A57.65,57.65,0,0,0,104.59,459a45.79,45.79,0,0,0,21.62,17.54,61.71,61.71,0,0,0,10.47,2.55c7.54,1.52,15.1.89,22.61.71A75.48,75.48,0,0,0,174,478a2.28,2.28,0,0,0,2-2.34c0-.67,0-1.33,0-2q0-22.5,0-45C176,428.19,175.91,427.72,175.84,427Z" transform="translate(415.05 -207.97)"/><path class="cls-1" d="M602,417.12H529V519.9c0,.5,0,1,0,1.5,0,4.45-1.09,5.59-5.36,5.6q-22.24,0-44.49,0c-3.48,0-4.88-1.33-5.14-4.8-.06-.83,0-1.67,0-2.5V279.27c0-.83-.05-1.67,0-2.5A5.26,5.26,0,0,1,478.7,272c.66-.05,1.33,0,2,0h41.49c.67,0,1.34,0,2,0,3.48.26,4.81,1.66,4.81,5.14q0,42.24,0,84.47v5.17h73V280.35c0-1,0-2,0-3,.13-3.43,2-5.33,5.61-5.33q22.49,0,45,0c2.85,0,4.33,1.61,4.4,4.55,0,.67,0,1.33,0,2V520.49c0,.67,0,1.33,0,2-.06,2.89-1.59,4.49-4.45,4.5-9.33,0-18.66,0-28,0-5.83,0-11.66,0-17.49,0-3.43,0-4.84-1.39-5.05-4.89-.06-1,0-2,0-3v-102Z" transform="translate(415.05 -207.97)"/><path class="cls-1" d="M919,360c5.45-4,11.43-6,17.37-8,4.76-1.59,9.79-2.21,14.7-3.21,6.24-1.27,12.42-.64,18.62-.78,4.77-.11,9.38,1.4,14.06,2.19,1.16,1.75,3.43-.07,4.89,1.65.85,1,2.92.87,4.27,1.56,4.5,2.31,8.88,4.82,12.5,8.45s7.14,6.78,9.88,10.91a24.63,24.63,0,0,1,2.12,4.11c1.49,3.55,3.45,6.85,4.83,10.51s2.17,7.4,3.56,11c1,2.45.8,5.33,1.2,8,.28,1.87.67,3.72,1,5.59s-.61,3.86.93,5.65c.49.58.08,1.93.08,2.93,0,9.83.06,19.66,0,29.5,0,2.2-.76,4.38-.92,6.59s.38,4.76-.13,7c-1,4.36-1,8.88-2,13.16a130.27,130.27,0,0,1-5.89,19.53c-.82,2-1.76,3.94-2.76,5.85a62.4,62.4,0,0,1-3.25,5.65,54.1,54.1,0,0,1-11,12.16c-6,4.86-13,7-20.06,9.56-1.95.7-4.23-.24-5.93,1.38-7-.14-14.05,2-21.07.91-6.25-1-12.69-1-18.76-2.95-9.27-3-18.57-6-26.58-11.86-1.39-1-2.8-2-4.19-3-.68,2.37-1.64,4.7-1.48,7.36.11,1.76-1.24,3.13-2.35,4.5s-2.34,1-3.61,1q-15,0-30,0c-3.56,0-5-1.41-5-5q0-41,0-82V279c0-.83,0-1.67,0-2.5.06-2.91,1.57-4.51,4.43-4.52,8.33,0,16.66,0,25,0,6.5,0,13,0,19.5,0,4.32,0,6,1.67,6.06,5.88,0,7.33,0,14.66,0,22V360Zm-.86,40.59v79.16c2.41,1,4.73,1.8,7,2.86,5.92,2.8,12.28,3.73,18.66,4.29a46.47,46.47,0,0,0,12.58-.79,19,19,0,0,0,10.18-5.43c3.58-3.66,4.76-8.91,6.48-13.71-.73-2.82,1.18-5.32,1-8.07s.88-5.45.88-8.07c0-11.06.93-22.16-1.77-33.14-1.56-6.36-2.73-11-6.12-15.95a16.81,16.81,0,0,0-8.08-6.61c-3.35-1.17-6.84-2.45-10.61-2.17s-7.36,0-11.1.89c-4.57,1.05-9.08,2-13.29,4.13C922.13,398.89,920.28,399.65,918.14,400.61Z" transform="translate(415.05 -207.97)"/><path class="cls-1" d="M788.78,353c14.12,0,28.61.12,43.09-.09,3.46,0,6.13.64,8.13,3.82V519.37a26.68,26.68,0,0,1,0,3.5c-.38,2.84-1.89,4.12-4.8,4.13q-14.25,0-28.49,0c-3,0-4.09-1-4.68-4.27-.46-2.48-.94-5-1.47-7.74a52.32,52.32,0,0,0-6.29,3.36c-5.13,3.66-11,5.56-16.85,7.63-3.64,1.29-7.35,2.43-11.08,3.49-2.09.6-4.66-.53-6.33,1.54-4.19.33-8.38.8-12.58,1s-8.41.52-12.47-.13c-2.71-.43-5.41-.54-8.1-.9s-5.43-1.61-8.19-1.84a25.44,25.44,0,0,1-7.6-2.25c-5.17-2.15-10.26-4.6-14.45-8.64a53.66,53.66,0,0,1-9-11.3,41.47,41.47,0,0,1-4.51-11.6c-1.06-4.48-1.51-9.11-2.28-13.62-1-5.76-.69-11.43-.71-17.12-.11-34.66,0-69.31-.13-104,0-5.74,1.39-7.58,7.93-7.59,13.5,0,27,0,40.49,0,.5,0,1,0,1.5,0,3.77.18,5.15,1.57,5.15,5.3q0,46.49,0,93c0,3.5-.13,7,0,10.5.19,4,.18,8.16,1.11,12a18.11,18.11,0,0,0,4.35,8.17c2.13,2.25,4.89,3.17,7.8,4.11,4.54,1.46,9.08.78,13.61.82a23.19,23.19,0,0,0,6.93-1.31A103.9,103.9,0,0,0,783.48,480a2.6,2.6,0,0,0,1.55-2.83,19.16,19.16,0,0,1,0-3c0-37.65,0-75.31-.08-113C784.91,357.72,785.48,355,788.78,353Z" transform="translate(415.05 -207.97)"/><path class="cls-1" d="M358,399c-8.32,0-16.15,0-24,0-3.23,0-4.67-1.3-5-4.43a9.06,9.06,0,0,1,0-1c0-9,0-18,0-27a23.22,23.22,0,0,1,.62-2.73c.43-3.2,3.4-3.25,5.37-3.71,6.67-1.58,13.35-3.07,19.91-5.09a11.45,11.45,0,0,1,3.08,0V339.8c0-10.67,0-21.33,0-32,0-3.31.46-3.79,3.57-3.79q23.5,0,47,0c2.81,0,3.42.62,3.42,3.44q0,20.25,0,40.49V353h33.73c1,0,2.22-.26,2.87.23,1.24.93,2.47,1.92,2.45,4-.11,12.5,0,25-.07,37.49,0,2.8-1.65,4.29-4.64,4.3-9.67,0-19.33,0-29,0H412v4.44c0,22,.14,44-.09,66-.07,6.61,4.83,14,12,15.65,5.51,1.24,11.72,2.76,15.65,1.77a31,31,0,0,1,7.62-.84c2.92,0,4.4,1.28,4.82,4.11a13.7,13.7,0,0,1,0,2q0,15,0,30c0,3.24-.47,3.72-4.08,4.88a132.77,132.77,0,0,1-13.22,3.18c-4.6,1-9.09.63-13.62.78a133.88,133.88,0,0,1-14,0,55.86,55.86,0,0,1-10.16-2,81.58,81.58,0,0,1-9.65-3.23A45.74,45.74,0,0,1,372,515.5c-4.78-4.77-7.64-10.69-9.95-16.88a68.88,68.88,0,0,1-3.3-14.2,88.55,88.55,0,0,1-.71-12.62c-.09-23.5,0-47,0-70.49Z" transform="translate(415.05 -207.97)"/><path class="cls-1" d="M312,439.33v79.92c0,1,.06,2,0,3a5.23,5.23,0,0,1-4.7,4.74c-1,.07-2,0-3,0q-20.23,0-40.46,0c-3,0-5.21-1-6.27-3.95a8.08,8.08,0,0,1-.54-1.77,22.23,22.23,0,0,1,0-2.49V360c0-.83-.06-1.67,0-2.5A5.19,5.19,0,0,1,261.5,353c.66-.06,1.33,0,2,0h43c4.4,0,5.54,1.1,5.54,5.41Q312,398.87,312,439.33Z" transform="translate(415.05 -207.97)"/><path class="cls-1" d="M314.86,309.28c1.14,4.05-.75,7.95-2,11.86a16.58,16.58,0,0,1-3.61,6c-2.84,3.14-5.64,6.52-9.47,8.46-3.44,1.74-7.07,3.32-11.07,3.43-1.5,0-3,0-4.5,0a25.86,25.86,0,0,1-20-8.32,35.94,35.94,0,0,1-4.7-5.53c-2.79-4.38-4.68-8.94-4.46-14.15.14-3.37-.08-6.68.75-10.14,1.11-4.62,3.44-8.4,6-12,3.31-4.65,8.41-7.25,13.49-9.55,4-1.82,11.29-1.27,16.12-.57,3.6.53,6.49,2.21,9.47,3.77a25.48,25.48,0,0,1,9.86,9.77c.23.38.14,1,.39,1.33A21.63,21.63,0,0,1,314.86,309.28Z" transform="translate(415.05 -207.97)"/><path class="cls-1" d="M-277.21,523.06c1.42-2.19,2.85-3.43,5.36-3.12,1.63.2,3.23,0,3.85,2C-271.9,527.37-272.06,527.11-277.21,523.06Z" transform="translate(415.05 -207.97)"/><path class="cls-1" d="M-314,515.54a6.46,6.46,0,0,1-1.94,1.41c-2.08.6-5.86-2.14-5.86-4.36a3.35,3.35,0,0,1,1.55-2.51C-318.34,509.15-313.91,512.84-314,515.54Z" transform="translate(415.05 -207.97)"/><path class="cls-1" d="M-284,522.9c-.43,2.78-3.47,1.35-4.48,3.05-1.09-1.62-4-.22-4.63-3.17,1.15-1.1,1.83-2.8,4.27-2.87S-285,521.11-284,522.9Z" transform="translate(415.05 -207.97)"/><path class="cls-1" d="M-328.62,496.29c1.18,1.42,2.14,2.52,3.05,3.66a2.32,2.32,0,0,1-.26,3.37,2.33,2.33,0,0,1-3.38,0C-331.68,501.23-331.7,499.62-328.62,496.29Z" transform="translate(415.05 -207.97)"/><path class="cls-1" d="M-332.15,492.82c-1.84.32-3.34.42-4.66-1a3.73,3.73,0,0,1-1.06-3.7c1.42.13,2.84-.68,4.11.65C-332.73,489.8-331.49,490.73-332.15,492.82Z" transform="translate(415.05 -207.97)"/><path class="cls-1" d="M-342.09,484.59c-4.52.5-4.53.5-4.74-3.26C-343.76,481.06-343.59,481.18-342.09,484.59Z" transform="translate(415.05 -207.97)"/><path class="cls-1" d="M-301.45,518l-.46-.59c.21-.06.56-.23.61-.17a2.78,2.78,0,0,1,.3.76Z" transform="translate(415.05 -207.97)"/></svg>