<svg id="Capa_1" data-name="Capa 1" xmlns="http://www.w3.org/2000/svg" xmlns:xlink="http://www.w3.org/1999/xlink" viewBox="0 0 2205.8 2106.64"><defs><style>.cls-1{fill:#fff;}.cls-2{fill:url(#Degradado_sin_nombre);}.cls-3{fill:url(#Degradado_sin_nombre_2);}.cls-4{fill:#14559a;}.cls-5{fill:url(#Degradado_sin_nombre_3);}.cls-6{fill:#3092c4;}.cls-7{fill:#1969bc;}.cls-8{fill:url(#Degradado_sin_nombre_4);}.cls-9{fill:url(#Degradado_sin_nombre_5);}.cls-10{fill:url(#Degradado_sin_nombre_6);}.cls-11{fill:#2b74b1;}.cls-12{fill:#125a9e;}.cls-13{fill:url(#Degradado_sin_nombre_7);}.cls-14{fill:url(#Degradado_sin_nombre_8);}.cls-15{fill:#0d82ca;}.cls-16{fill:url(#Degradado_sin_nombre_9);}.cls-17{fill:#127bca;}.cls-18{fill:url(#Degradado_sin_nombre_10);}.cls-19{fill:url(#Degradado_sin_nombre_11);}.cls-20{fill:#05a1e6;}.cls-21{fill:url(#Degradado_sin_nombre_12);}.cls-22{fill:url(#Degradado_sin_nombre_13);}.cls-23{fill:url(#Degradado_sin_nombre_14);}.cls-24{fill:#079ae1;}.cls-25{fill:#1e5cb3;}.cls-26{fill:#1d60b5;}.cls-27{fill:#175fab;}.cls-28{fill:url(#Degradado_sin_nombre_15);}.cls-29{fill:#7dcbec;}.cls-30{fill:#5ec5ed;}.cls-31{fill:url(#Degradado_sin_nombre_16);}.cls-32{fill:url(#Degradado_sin_nombre_17);}.cls-33{fill:url(#Degradado_sin_nombre_18);}</style><linearGradient id="Degradado_sin_nombre" x1="942.14" y1="1589.28" x2="942.14" y2="1587.79" gradientTransform="matrix(395.33, 0, 0, -705.01, -371290.31, 1120747.72)" gradientUnits="userSpaceOnUse"><stop offset="0" stop-color="#0994dc"/><stop offset="0.35" stop-color="#66cef5"/><stop offset="0.85" stop-color="#127bca"/><stop offset="1" stop-color="#127bca"/></linearGradient><linearGradient id="Degradado_sin_nombre_2" x1="942.25" y1="1589.25" x2="942.25" y2="1587.76" gradientTransform="matrix(414.93, 0, 0, -722.97, -389760.79, 1149245.17)" gradientUnits="userSpaceOnUse"><stop offset="0" stop-color="#0e76bc"/><stop offset="0.36" stop-color="#36aee8"/><stop offset="0.85" stop-color="#00adef"/><stop offset="1" stop-color="#00adef"/></linearGradient><linearGradient id="Degradado_sin_nombre_3" x1="942.13" y1="1587.93" x2="942.13" y2="1589.11" gradientTransform="matrix(393.99, 0, 0, -732.44, -369764.49, 1164181.54)" gradientUnits="userSpaceOnUse"><stop offset="0" stop-color="#1c63b7"/><stop offset="0.5" stop-color="#33bdf2"/><stop offset="1" stop-color="#33bdf2" stop-opacity="0.42"/></linearGradient><linearGradient id="Degradado_sin_nombre_4" x1="942.11" y1="1589.21" x2="942.11" y2="1587.72" gradientTransform="matrix(390.15, 0, 0, -750.63, -366202.32, 1193064.67)" gradientUnits="userSpaceOnUse"><stop offset="0" stop-color="#166ab8"/><stop offset="0.4" stop-color="#36aee8"/><stop offset="0.85" stop-color="#0798dd"/><stop offset="1" stop-color="#0798dd"/></linearGradient><linearGradient id="Degradado_sin_nombre_5" x1="942.65" y1="1589.15" x2="942.65" y2="1587.66" gradientTransform="matrix(505.79, 0, 0, -798.17, -475503.93, 1268565.83)" gradientUnits="userSpaceOnUse"><stop offset="0" stop-color="#124379"/><stop offset="0.39" stop-color="#1487cb"/><stop offset="0.78" stop-color="#165197"/><stop offset="1" stop-color="#165197"/></linearGradient><linearGradient id="Degradado_sin_nombre_6" x1="938.45" y1="1590.35" x2="939.45" y2="1590.35" gradientTransform="matrix(168.32, 0, 0, -268.02, -157165.09, 426775.03)" gradientUnits="userSpaceOnUse"><stop offset="0" stop-color="#33bdf2" stop-opacity="0.7"/><stop offset="1" stop-color="#1dacd8"/></linearGradient><linearGradient id="Degradado_sin_nombre_7" x1="943.14" y1="1587.95" x2="943.14" y2="1588.92" gradientTransform="matrix(686.01, 0, 0, -855.35, -644940.37, 1359334.89)" gradientUnits="userSpaceOnUse"><stop offset="0" stop-color="#136ab4"/><stop offset="0.6" stop-color="#59caf5" stop-opacity="0.55"/><stop offset="1" stop-color="#59caf5" stop-opacity="0.23"/></linearGradient><linearGradient id="Degradado_sin_nombre_8" x1="942.5" y1="1588.39" x2="943.5" y2="1588.39" gradientTransform="matrix(624.29, 0, 0, -859.53, -588190.42, 1365986.17)" gradientUnits="userSpaceOnUse"><stop offset="0" stop-color="#05a1e6" stop-opacity="0.25"/><stop offset="1" stop-color="#05a1e6"/></linearGradient><linearGradient id="Degradado_sin_nombre_9" x1="942.3" y1="1587.95" x2="942.3" y2="1589.29" gradientTransform="matrix(425.17, 0, 0, -639.9, -400095.34, 1017231.69)" gradientUnits="userSpaceOnUse"><stop offset="0" stop-color="#318ed5"/><stop offset="1" stop-color="#38a7e4"/></linearGradient><linearGradient id="Degradado_sin_nombre_10" x1="942.14" y1="1588.63" x2="942.14" y2="1590.31" gradientTransform="matrix(395.29, 0, 0, -495.18, -371821.17, 787775.98)" gradientUnits="userSpaceOnUse"><stop offset="0" stop-color="#05a1e6"/><stop offset="1" stop-color="#05a1e6" stop-opacity="0.55"/></linearGradient><linearGradient id="Degradado_sin_nombre_11" x1="942.45" y1="1588.09" x2="942.45" y2="1589.09" gradientTransform="matrix(455.24, 0, 0, -702.92, -428397.13, 1117453.24)" gradientUnits="userSpaceOnUse"><stop offset="0" stop-color="#1959a6"/><stop offset="0.5" stop-color="#05a1e6"/><stop offset="0.92" stop-color="#7ec5ea"/><stop offset="1" stop-color="#7ec5ea"/></linearGradient><linearGradient id="Degradado_sin_nombre_12" x1="943.12" y1="1587.94" x2="942.9" y2="1588.83" gradientTransform="matrix(629.96, 0, 0, -858.17, -593455.53, 1363840.2)" gradientUnits="userSpaceOnUse"><stop offset="0" stop-color="#165096"/><stop offset="1" stop-color="#0d82ca"/></linearGradient><linearGradient id="Degradado_sin_nombre_13" x1="941.21" y1="1588.77" x2="941.21" y2="1589.57" gradientTransform="matrix(284.02, 0, 0, -496.03, -265407.17, 788761.11)" gradientUnits="userSpaceOnUse"><stop offset="0" stop-color="#05a1e6"/><stop offset="0.87" stop-color="#0495d6"/><stop offset="1" stop-color="#0495d6"/></linearGradient><linearGradient id="Degradado_sin_nombre_14" x1="942.87" y1="1588.96" x2="942.56" y2="1587.86" gradientTransform="matrix(522.42, 0, 0, -834.93, -490464.36, 1326903.39)" gradientUnits="userSpaceOnUse"><stop offset="0" stop-color="#38a7e4" stop-opacity="0.33"/><stop offset="0.96" stop-color="#0e88d3"/><stop offset="1" stop-color="#0e88d3"/></linearGradient><linearGradient id="Degradado_sin_nombre_15" x1="942.97" y1="1588.9" x2="942.97" y2="1587.88" gradientTransform="matrix(609.19, 0, 0, -850.42, -572488.64, 1351514.7)" gradientUnits="userSpaceOnUse"><stop offset="0" stop-color="#168cd4"/><stop offset="0.5" stop-color="#1c87cc"/><stop offset="1" stop-color="#154b8d"/></linearGradient><linearGradient id="Degradado_sin_nombre_16" x1="940.85" y1="1565.2" x2="941.56" y2="1567.46" gradientTransform="translate(-263866.14 -57404.31) scale(281.36 36.84)" gradientUnits="userSpaceOnUse"><stop offset="0" stop-color="#97d6ee"/><stop offset="0.7" stop-color="#55c1ea"/><stop offset="1" stop-color="#55c1ea"/></linearGradient><linearGradient id="Degradado_sin_nombre_17" x1="940" y1="1576.16" x2="940.69" y2="1575.05" gradientTransform="translate(-214721.98 -101891.51) scale(229.46 64.87)" gradientUnits="userSpaceOnUse"><stop offset="0" stop-color="#7accec"/><stop offset="1" stop-color="#3fb7ed"/></linearGradient><linearGradient id="Degradado_sin_nombre_18" x1="942.43" y1="1589.03" x2="942.43" y2="1587.81" gradientTransform="matrix(451.13, 0, 0, -698.94, -423309.96, 1110962.98)" gradientUnits="userSpaceOnUse"><stop offset="0" stop-color="#1da7e7"/><stop offset="1" stop-color="#37abe7" stop-opacity="0"/></linearGradient></defs><title>netframework</title><path class="cls-1" d="M2050.46,1385.91c0-3.73-1-6.39-3.12-8.12-2.33-1.87-6.35-2.87-12-2.87h-8V1397h9.71c9,0,13.4-3.73,13.4-11.13ZM2063,1432h-11.06l-7.06-15.56c-3.58-7.8-7.41-11.7-11.59-11.7h-6V1432h-9.12v-64.87h18.26c8.11,0,14.22,1.76,18.39,5.43a15.53,15.53,0,0,1,5.32,12.22,16,16,0,0,1-4.36,11.36c-2.83,3.15-6.92,5.28-12.13,6.38v.28c3.61.85,7.23,4.82,10.75,12l8.54,17.27Zm20.2-31.79c0-12.77-4.35-23.54-13-32.09s-19.36-12.83-31.9-12.83q-19.42,0-32.26,12.91c-8.55,8.65-12.8,19.36-12.8,32,0,12.94,4.44,23.75,13.23,32.37s19.32,12.86,31.83,12.86a43.43,43.43,0,0,0,31.84-13c8.75-8.58,13.11-19.36,13.11-32.22Zm6.14-.29q0,21.49-14.81,36c-9.89,9.75-22,14.61-36.51,14.61s-26.73-4.78-36.37-14.18-14.43-21.51-14.43-36.05c0-14.22,4.9-26.16,14.67-36s22-14.67,36.55-14.67q21.43,0,36,14c10,9.57,14.93,21.62,14.93,36.26ZM702.85,1580.85H671.4V1400.9c0-14.22.94-31.51,2.6-51.92h-.69c-2.95,11.94-5.64,20.59-8,25.94l-91.39,205.93H558.59L467,1376.41c-2.57-5.71-5.28-14.89-8-27.44h-.68c1,10.75,1.5,28.15,1.5,52.29v179.59H429.52v-268H471l82.21,186.85c6.21,14.08,10.21,24.79,12.16,32.09h1.3c5.36-14.65,9.6-25.63,12.83-32.87l84-186.07h39.35v268Zm96.71,0H769V1389.48h30.55Zm5.29-260a19.17,19.17,0,0,1-5.92,14.22,19.43,19.43,0,0,1-14.25,5.81,19.77,19.77,0,0,1-14.11-5.59c-3.9-3.76-5.81-8.55-5.81-14.43a19,19,0,0,1,5.81-14.07,20.55,20.55,0,0,1,28.36,0A18.91,18.91,0,0,1,804.85,1320.89ZM990.52,1572c-14.67,9-32.19,13.47-52.43,13.47q-41.15,0-66.4-27.3-24.57-26.47-24.63-68.38,0-47,27-76t72.57-29q24.94,0,44.28,9.71V1426c-14.28-10-29.38-15-45.59-15q-29.24,0-47.64,20.39c-12.79,13.89-19.29,32.47-19.29,55.65q0,33.4,17.69,52.89c11.81,12.94,27.51,19.42,47.33,19.42q25.09,0,47.07-16.44Zm146.16-151.45c-5.39-4.15-13.16-6.17-23.4-6.17-12.44,0-22.9,5.56-31.37,16.8q-14.41,18.83-14.39,52.11v97.56h-30.63V1389.48h30.63v39.46h.74c4.51-14,11.45-24.71,20.73-32.33a45.83,45.83,0,0,1,29.32-10.46c8.16,0,14.22.88,18.37,2.61v31.79Zm170.7,65q0-36.74-16.59-56-16.11-18.5-45.06-18.51c-19,0-34.32,6.24-45.73,18.72q-18.12,20-18.12,56.58c0,22.9,5.75,40.87,17.34,53.7s27,19.36,46.51,19.36c20.14,0,35.56-6.55,46.11-19.6q15.54-19.14,15.53-54.2m31.4-1.08q0,45.74-25.77,73.35t-69.55,27.65c-28.71,0-51.57-9.21-68.34-27.65q-24.63-26.64-24.68-70.4,0-49.93,28-77.17,26-25.35,69.45-25.41c28.54,0,50.83,8.89,66.89,26.52s24,42.11,24,73.12m151.9,45.22q0,23.49-17.59,39c-12.79,11.2-30.37,16.81-52.49,16.81-18.12,0-34-3.8-47.47-11.53V1541q22.49,18.29,49.74,18.33,36.37,0,36.41-26.73a23.61,23.61,0,0,0-8.05-18.46q-8.07-7.35-31.4-17.6c-16-7-27.44-14.21-34.17-21.69q-12.13-13.3-12.16-34.56c0-15.89,6.34-29.11,18.9-39.64s28.74-15.85,48.59-15.85c15.21,0,28.82,3,40.91,9v30.84c-12.62-9.11-27-13.65-43.43-13.65-10.14,0-18.29,2.53-24.36,7.45a23.84,23.84,0,0,0-9.21,19.28c0,8.48,2.58,15.07,7.7,19.78,4.53,4.36,14.17,9.68,28.71,15.88q24.51,10.27,35.34,21.2c9.33,9.19,14,20.88,14,35.1m187.19-44.14q0-36.74-16.63-56-16.06-18.5-45-18.51-28.55,0-45.8,18.72-18.07,20-18,56.58c0,22.9,5.75,40.87,17.23,53.7q17.49,19.36,46.62,19.36,30.26,0,46.11-19.6,15.52-19.14,15.53-54.2m31.47-1.08c0,30.49-8.69,55-25.87,73.35s-40.34,27.65-69.48,27.65c-28.75,0-51.62-9.21-68.38-27.65q-24.61-26.64-24.67-70.4,0-49.93,28-77.17,26-25.35,69.52-25.41c28.54,0,50.79,8.89,66.83,26.52s24.06,42.11,24.06,73.12m135-160a41,41,0,0,0-20.34-5c-21.44,0-32.08,13.5-32.08,40.56v29.49h44.84v26h-44.84v165.4h-30.67V1415.42h-32.54v-26h32.54v-31c0-21.06,6.46-37.58,19.57-49.49q16.85-15.52,41.33-15.49c9.47,0,16.84,1.14,22.19,3.34Zm120.89,254.44c-7.23,4.15-16.88,6.21-28.79,6.21q-50.08,0-50.08-56.47V1415.45H1853.5v-26h32.83v-46.69c9.78-3.09,20-6.45,30.69-9.92v56.61h48.18v26H1917v108c0,12.83,2.1,22,6.48,27.33,4.44,5.5,11.67,8.19,21.88,8.19a32.46,32.46,0,0,0,19.81-6.17Z" transform="translate(-200.19 -276.36)"/><path class="cls-1" d="M309.45,2327.66c0,15-5.35,28-16.16,38.92A53.11,53.11,0,0,1,254.07,2383q-22.49,0-38.21-16.42a54.43,54.43,0,0,1-15.67-38.92c0-15.43,5.21-28.43,15.67-39.21a51.1,51.1,0,0,1,38.21-16.17,52.94,52.94,0,0,1,39.21,16.38c10.81,10.95,16.16,24,16.16,39m685.78,44.07H895.34l-362.61-560a257,257,0,0,1-22-44.1h-3q3.87,22.49,3.9,96.49v507.6H429.32V1669.17H536.2L888,2220.33c14,21.87,23.58,37.53,28.43,47h2q-4.9-30.32-5-103.31V1669.17h81.85v702.57Zm527.92,0H1150.79V1669.17H1507v74.45H1233.08v233.71H1486.9v74.48H1233.07v245.44h290.07ZM2088,1743.62H1885.58v628.12h-82.32V1743.62H1600.51v-74.48H2088Z" transform="translate(-200.19 -276.36)"/><path class="cls-2" d="M967.31,455.69C1046.74,698.62,1076.84,1132,1309.14,1132a285.78,285.78,0,0,0,53.49-5.15C1151.46,1077.6,1126.43,649,997.58,427Q982.16,441,967.3,455.69" transform="translate(-200.19 -276.36)"/><path class="cls-3" d="M997.58,427c128.86,222,153.88,650.63,365.05,699.86a335,335,0,0,0,49.88-13.47c-189.54-92.86-241.93-509.11-388.27-709.5q-13.55,11.3-26.65,23.12" transform="translate(-200.19 -276.36)"/><path class="cls-4" d="M1183.24,295a286.71,286.71,0,0,0-53.52,5.15c-47,8.86-94.75,29.1-142.89,59.72a354.53,354.53,0,0,1,37.43,44c49-40.63,97.6-70.64,146.06-88.69A325.64,325.64,0,0,1,1224.78,300a167.85,167.85,0,0,0-41.55-5.07" transform="translate(-200.19 -276.36)"/><path class="cls-5" d="M1560.47,1027.76q30.29-24.2,58.28-51.08c-80.72-241.8-109.61-681.36-343.54-681.36a276.87,276.87,0,0,0-50.45,4.68c213.09,53,240.38,516.59,335.71,727.76" transform="translate(-200.19 -276.36)"/><path class="cls-6" d="M1224.78,300a168,168,0,0,0-41.55-5.06l92,.34a273.89,273.89,0,0,0-50.45,4.72" transform="translate(-200.19 -276.36)"/><path class="cls-7" d="M1556.39,1079.13a346.48,346.48,0,0,1-26.38-28.5c-39.35,27.86-78.55,49-117.5,62.74a181,181,0,0,0,43.81,14.93,185.67,185.67,0,0,0,37.33,3.69c43.7,0,78.27-5.17,107.69-19.29-16.2-8.75-31.06-20.11-45-33.57" transform="translate(-200.19 -276.36)"/><path class="cls-8" d="M1170.29,315.2C1361.14,415,1377.73,867.07,1530,1050.63q15.55-11,30.42-22.87C1465.11,816.59,1437.85,353,1224.81,300a329.9,329.9,0,0,0-54.52,15.2" transform="translate(-200.19 -276.36)"/><path class="cls-9" d="M1024.23,403.86c146.33,200.39,198.73,616.63,388.27,709.5,39-13.75,78.17-34.88,117.51-62.74C1377.73,867.07,1361.14,415,1170.29,315.2c-48.45,18-97.1,48-146.06,88.66" transform="translate(-200.19 -276.36)"/><path class="cls-10" d="M873.68,449.84c-22.94,51.86-46.37,120-74.69,209,56.33-79.36,112.48-147.75,168.32-203.14a609.08,609.08,0,0,0-24.85-64.88,838.74,838.74,0,0,0-68.77,59" transform="translate(-200.19 -276.36)"/><path class="cls-11" d="M962.79,375.86q-10.28,7.32-20.32,15a608.35,608.35,0,0,1,24.82,64.87q14.88-14.63,30.27-28.72a402.25,402.25,0,0,0-34.77-51.12" transform="translate(-200.19 -276.36)"/><path class="cls-12" d="M986.81,359.83q-12.19,7.75-24,16A403.13,403.13,0,0,1,997.6,427q13.08-11.86,26.66-23.14a354.52,354.52,0,0,0-37.45-44" transform="translate(-200.19 -276.36)"/><path class="cls-13" d="M2288.63,276.45c-107.94,416.28-333.4,750.63-522.42,834.93h-.35c-3.44,1.56-6.85,3-10.21,4.36a8.23,8.23,0,0,1-1.25.49c-1,.4-1.91.71-2.9,1.11a7.6,7.6,0,0,1-1.31.54c-1.59.57-3.16,1-4.72,1.67-.68.29-1.31.46-2,.68a23.7,23.7,0,0,1-2.34.76c-.71.28-1.46.49-2.27.8s-1.39.4-2,.68c-1.39.4-2.65.74-4,1.21a7.24,7.24,0,0,0-1.7.47c-.86.28-1.82.48-2.74.74a8.38,8.38,0,0,1-1.84.51c-1,.28-2,.54-3,.76l-3.61.8a77,77,0,0,0,27,4.75c179.24,0,359.95-321.2,659-855.35H2288.59Z" transform="translate(-200.19 -276.36)"/><path class="cls-14" d="M760.07,311.85c.11,0,.26-.28.32-.28s.36,0,.43-.28H761c1-.35,1.91-.74,2.9-1.11a.53.53,0,0,0,.57-.28c.25,0,.49-.29.75-.32,1.06-.34,2.12-.74,3.12-1.1h.16c2.38-.71,4.58-1.59,6.87-2.42.33,0,.64-.28,1-.28,1-.31,2-.65,2.95-.88a5.49,5.49,0,0,1,1.34-.43c1-.3,2-.65,3-.88.43,0,.81-.29,1.14-.31,3.29-.91,6.56-1.76,9.86-2.55.46,0,.85-.29,1.34-.31a19,19,0,0,1,2.88-.57,5,5,0,0,1,1.41-.42c1-.28,1.88-.31,2.91-.54h.67c2-.41,4-.74,6-1.11h1.2a25.29,25.29,0,0,1,2.77-.49c.52,0,1.06-.28,1.56-.28a21.54,21.54,0,0,0,2.65-.4,2.79,2.79,0,0,0,1.46-.29c2.09-.28,4.25-.39,6.45-.56q-9.51-1-19.07-1C605.1,294.78,327,669.3,201.73,1154.3h24.14c40.09-71.49,76.1-139.13,109-202.62,87.73-343.54,266.43-577.82,425.16-639.89" transform="translate(-200.19 -276.36)"/><path class="cls-15" d="M873.69,449.84a838.37,838.37,0,0,1,68.77-59,324.74,324.74,0,0,0-16.38-31.66c-18.46,22.41-35.34,52-52.39,90.68" transform="translate(-200.19 -276.36)"/><path class="cls-15" d="M890.27,314.69c13.18,11.06,25,26.26,35.8,44.49,3.41-4.19,6.85-8.05,10.43-11.67a202.62,202.62,0,0,0-48.78-34.13,23.31,23.31,0,0,0,2.16,1s.28.28.4.28" transform="translate(-200.19 -276.36)"/><path class="cls-16" d="M334.89,951.72C519,597.06,606.15,372.59,760.07,311.83c-158.7,62.11-337.44,296.39-425.16,639.9" transform="translate(-200.19 -276.36)"/><path class="cls-17" d="M936.48,347.51c-3.58,3.65-7,7.48-10.42,11.67a329.31,329.31,0,0,1,16.42,31.65q10-7.64,20.31-15a276.36,276.36,0,0,0-26.31-28.36" transform="translate(-200.19 -276.36)"/><path class="cls-18" d="M418.45,1152.75a23,23,0,0,1-3.34.4h-.63c-1,0-2,.29-2.84.29h-.46c-2.31.28-4.58.28-6.77.45h-.71c186.28-5.21,271.43-98.48,313.69-233.75C749.51,817.59,775.88,731.19,799,658.7c-78,109.82-156.41,240.74-235.21,387.39-38,70.68-95.78,100.2-145.34,106.53" transform="translate(-200.19 -276.36)"/><path class="cls-19" d="M418.45,1152.68c49.55-6.31,107.34-35.8,145.34-106.53C642.59,899.54,721,768.6,799,658.77c28.36-89,51.77-157.15,74.74-209-155.37,147.89-311.35,393.8-455.24,702.85" transform="translate(-200.19 -276.36)"/><path class="cls-20" d="M334.89,951.73c-32.94,63.48-69,131.12-109,202.62h70.22a1716.29,1716.29,0,0,1,38.82-202.59" transform="translate(-200.19 -276.36)"/><path class="cls-21" d="M819.56,296.52c-.57,0-1,.28-1.49.28a11.57,11.57,0,0,1-2.63.37,3.06,3.06,0,0,0-1.56.29c-1,.28-1.84.3-2.77.49a1.84,1.84,0,0,0-1.2.28c-2,.34-4,.71-6,1h-.68a22.68,22.68,0,0,1-2.91.57,5,5,0,0,1-1.46.39,26.48,26.48,0,0,1-2.83.57,2.7,2.7,0,0,1-1.34.3c-3.29.8-6.56,1.65-9.86,2.56-.35,0-.71.28-1.14.34-1,.28-2,.56-3,.88a4,4,0,0,1-1.34.4q-1.48.41-2.95.88c-.38,0-.7.28-1.06.28-2.27.85-4.51,1.71-6.85,2.41-1,.31-2.05.71-3.12,1.08a6.21,6.21,0,0,1-1.3.54c-1,.31-2,.71-2.91,1.07a4.64,4.64,0,0,1-1,.46C606.33,372.76,519.12,597.21,335.08,951.88a1708.85,1708.85,0,0,0-38.82,202.6h9.86c27.75,0,35.59-.29,67.52-.29h31c2.19-.28,4.46-.28,6.76-.46h.43c1,0,1.91-.28,2.83-.28h.68c1,0,2.19-.28,3.33-.4,143.89-309,299.86-555,455.24-702.85,17.08-38.7,33.92-68.27,52.35-90.64-10.78-18.22-22.59-33.46-35.77-44.52s-.36,0-.38-.29c-.75-.3-1.46-.68-2.2-1s-1.39-.72-2.17-1.11a23.46,23.46,0,0,1-2.12-1,21.51,21.51,0,0,1-2.48-1c-.68-.29-1.27-.57-2-.85q-2.06-.8-4.07-1.71c-.61-.28-1.17-.43-1.73-.65q-1.55-.56-3.06-1.21a9.22,9.22,0,0,0-1.63-.55c-1.45-.49-2.87-1-4.21-1.45h-.36c-1.63-.54-3.22-.94-4.89-1.39a2.1,2.1,0,0,0-1.1-.35c-1.46-.39-2.73-.78-4.11-1.15-.35,0-.68-.29-1-.29q-5.09-1.3-10.25-2.24c-.35,0-.7-.29-1.06-.29q-2.2-.44-4.43-.71a1.18,1.18,0,0,0-.88-.28q-2.62-.4-5.25-.68h-.92c-1.42-.28-2.73-.3-4-.45-2.24.28-4.36.4-6.46.6" transform="translate(-200.19 -276.36)"/><path class="cls-22" d="M1867,506.91c-35.41,113.44-64.09,207-89,284,97.17-133.71,192.88-301.92,284-496-106.31,33.39-163,109.82-195,212" transform="translate(-200.19 -276.36)"/><path class="cls-23" d="M1781,1104.29c-5,2.53-9.92,4.93-14.82,7.09,189-84.3,414.48-418.65,522.42-834.93h-21.88c-248,443-327.75,739.57-485.72,827.84" transform="translate(-200.19 -276.36)"/><path class="cls-24" d="M1657.61,1067.08c41.12-50.2,74.62-135.52,120.35-276.15-52.75,72.46-105.85,134.74-159,185.55,0,.28,0,.28-.28.45,11.6,34.74,24.32,65.4,38.82,90.15" transform="translate(-200.19 -276.36)"/><path class="cls-7" d="M1657.61,1067.08c-14,17.08-28.82,30.1-45.3,39.73-3.62,2.1-7.27,4.07-11,5.89a159.27,159.27,0,0,0,57.67,18.18c3.12.31,6.21.6,9.43.82h.57a25.61,25.61,0,0,1,4.54.28h15.38a3.78,3.78,0,0,0,1.72-.28,13.75,13.75,0,0,0,3.4-.29h1.68c1.16,0,2.44-.28,3.68-.4h.29c.36,0,.76-.28,1.13-.28,1.3-.29,2.67-.4,3.94-.6h1.16c1.44-.28,2.94-.46,4.42-.74h.72c3-.57,5.88-1.13,8.82-1.87-24.39-8.93-44.81-30-62.39-60" transform="translate(-200.19 -276.36)"/><path class="cls-25" d="M1309.14,1132a283.76,283.76,0,0,0,53.5-5.17,331.64,331.64,0,0,0,49.88-13.44,181.33,181.33,0,0,0,43.77,14.93,186,186,0,0,0,37.37,3.68Z" transform="translate(-200.19 -276.36)"/><path class="cls-25" d="M1493.66,1132c43.68,0,78.27-5.17,107.66-19.29a159.32,159.32,0,0,0,57.68,18.19c3.12.3,6.21.59,9.43.81h.57a24.84,24.84,0,0,1,4.54.29H1493.66Z" transform="translate(-200.19 -276.36)"/><path class="cls-26" d="M1678.93,1132H1689a3.73,3.73,0,0,0,1.73-.28,14.28,14.28,0,0,0,3.44-.29h1.67c1.16,0,2.44-.28,3.65-.39h.31c.37,0,.74-.28,1.11-.28,1.3-.29,2.66-.4,3.94-.61a2,2,0,0,0,1.21-.28c1.45-.28,2.95-.42,4.44-.7h.71c3-.57,5.88-1.14,8.82-1.87a77,77,0,0,0,27,4.75l-68.13.28Z" transform="translate(-200.19 -276.36)"/><path class="cls-27" d="M1618.8,976.93v-.29q-28,26.86-58.27,51.08-14.9,11.86-30.45,22.87a346.53,346.53,0,0,0,26.38,28.51c13.89,13.46,28.74,24.81,44.94,33.56,3.69-1.82,7.38-3.8,11-5.89,16.52-9.64,31.33-22.65,45.33-39.73-14.49-24.75-27.22-55.41-38.82-90.15" transform="translate(-200.19 -276.36)"/><path class="cls-28" d="M2197.49,276.45H2087.4c-5.95.29-11.73.49-17.43.85-2.7,5.78-5.46,11.56-8.12,17.38-91.14,194.11-186.85,362.32-284,496-45.7,140.62-79.23,225.95-120.35,276.14,17.58,30,38,51.08,62.35,60a10.9,10.9,0,0,1,1.92-.43h.4c.42,0,.88-.28,1.34-.28,1-.29,2.05-.46,3.05-.76a15.18,15.18,0,0,1,1.8-.52c.93-.28,1.88-.48,2.73-.7a6.36,6.36,0,0,1,1.7-.49c1.42-.46,2.7-.8,4-1.22a11.53,11.53,0,0,1,2-.68,24.1,24.1,0,0,0,2.27-.81c.81-.29,1.63-.43,2.34-.74s1.3-.46,1.91-.71c1.59-.57,3.16-1,4.75-1.67.43,0,.86-.4,1.32-.49,1-.4,2-.71,2.9-1.14a3.47,3.47,0,0,1,1.24-.46c3.34-1.39,6.77-2.81,10.21-4.36h.36q7.49-3.34,14.79-7.09c158-88.27,237.76-384.83,485.75-827.84h-69.27Z" transform="translate(-200.19 -276.36)"/><path class="cls-29" d="M826,295.92a1.71,1.71,0,0,1,1.13.28,9,9,0,0,1,2.87.31h1c1.74.28,3.48.43,5.25.68a1.08,1.08,0,0,1,.88.28c1.46.28,2.95.52,4.43.74.33,0,.75.29,1.1.29,3.41.68,6.88,1.39,10.21,2.26.32,0,.64.29.92.29,1.42.34,2.7.76,4.12,1.16.43,0,.75.28,1.13.35,1.67.42,3.23.85,4.86,1.39.07,0,.17,0,.36.28,1.39.42,2.8,1,4.26,1.45a8.32,8.32,0,0,0,1.63.54c1,.43,2.1.85,3.05,1.25a6.11,6.11,0,0,1,1.73.61c1.31.59,2.69,1.13,4,1.69.71.29,1.31.61,2,.86a16.87,16.87,0,0,0,2.44,1c.71.35,1.49.71,2.17,1s1.45.71,2.17,1.11a203.35,203.35,0,0,1,48.77,34.14,158.38,158.38,0,0,1,17.29-15.71C921,309,883.84,295.69,841,295.69c-5,0-9.92.29-15,.66" transform="translate(-200.19 -276.36)"/><path class="cls-30" d="M936.48,347.51a276.36,276.36,0,0,1,26.31,28.36q11.82-8.3,24-16a253.57,253.57,0,0,0-33.08-28,154.79,154.79,0,0,0-17.27,15.71" transform="translate(-200.19 -276.36)"/><path class="cls-31" d="M826,295.91c5-.42,10-.61,15-.61,42.85,0,80,13.26,112.8,36.49,34.6-27.3,76.43-36.84,134.53-36.84H806.93c6.5,0,12.84.39,19.08,1" transform="translate(-200.19 -276.36)"/><path class="cls-32" d="M1088.29,295c-58.1,0-99.92,9.53-134.53,36.84a255.58,255.58,0,0,1,33,28c48.17-30.62,95.89-50.91,142.94-59.77a290,290,0,0,1,53.48-5.11Z" transform="translate(-200.19 -276.36)"/><path class="cls-33" d="M1777.95,791c25-77.06,53.6-170.61,89.08-284.08,32-102.24,88.59-178.66,194.9-212,2.81-5.71,5.46-11.6,8.19-17.37-173.31,10.38-254.31,98.55-295.08,229.1-71.29,227.93-114.47,375.69-156,469.84,53.11-50.76,106.21-113.08,159-185.47" transform="translate(-200.19 -276.36)"/><path class="cls-1" d="M2032.22,1071.27h-19.64v61h-8v-61h-19.72V1064h47.36Zm80.41,61h-8v-45.87c0-3.61.28-8,.65-13.26a47.16,47.16,0,0,1-2.12,6.67l-23.26,52.46H2076l-23.32-52.07a36.8,36.8,0,0,1-2.11-7.06h-.28c.28,2.75.37,7.19.37,13.37v45.77H2043V1064h10.57l20.94,47.67a61.62,61.62,0,0,1,3.09,8.19h.31c1.39-3.76,2.51-6.56,3.29-8.41l21.38-47.46h10.06v68.3Z" transform="translate(-200.19 -276.36)"/></svg>