<svg id="Capa_1" data-name="Capa 1" xmlns="http://www.w3.org/2000/svg" viewBox="0 0 283.5 300.76"><defs><style>.cls-1{fill:#937ab6;}</style></defs><title>visualstudio</title><g id="_Grupo_" data-name="&lt;Grupo&gt;"><path id="_Trazado_compuesto_" data-name="&lt;Trazado compuesto&gt;" class="cls-1" d="M215.43,8,274.2,31.93V222.27l-59.15,23.89L120.64,152.5,60.74,198.76,36.85,187V68L60.74,56.58l59.91,47ZM61.12,91.46v72l35.64-36.78Zm92.51,35.64,61.42,48.53V78.57Z" transform="translate(-14.55 -8.04)"/><path id="_Trazado_" data-name="&lt;Trazado&gt;" class="cls-1" d="M47.15,270.2l-14,37.8h-4.9l-13.7-37.8h4.9l10.5,30a26.62,26.62,0,0,1,.8,3.3h.1a11.47,11.47,0,0,1,.9-3.4l10.7-29.9h4.7Z" transform="translate(-14.55 -8.04)"/><path id="_Trazado_compuesto_2" data-name="&lt;Trazado compuesto&gt;" class="cls-1" d="M52.55,274.1a3,3,0,0,1-2-.8,2.83,2.83,0,0,1,4-4,2.44,2.44,0,0,1,.8,2,3,3,0,0,1-.8,2A2.44,2.44,0,0,1,52.55,274.1Zm2.1,33.9h-4.3V281h4.3Z" transform="translate(-14.55 -8.04)"/><path id="_Trazado_2" data-name="&lt;Trazado&gt;" class="cls-1" d="M60.15,307v-4.6A13.06,13.06,0,0,0,68,305c3.8,0,5.7-1.3,5.7-3.8a3.45,3.45,0,0,0-.5-1.8,5.35,5.35,0,0,0-1.3-1.3,11.4,11.4,0,0,0-1.9-1c-.7-.3-1.6-.6-2.4-1-1.2-.5-2.2-1-3.1-1.4a10.35,10.35,0,0,1-2.3-1.6,6,6,0,0,1-1.4-2.1,7.63,7.63,0,0,1-.5-2.7,6.4,6.4,0,0,1,.9-3.4,9.15,9.15,0,0,1,2.3-2.5,9.88,9.88,0,0,1,3.3-1.5,15.83,15.83,0,0,1,3.8-.5,16.08,16.08,0,0,1,6.3,1.2V286a12.34,12.34,0,0,0-6.9-1.9,7.8,7.8,0,0,0-2.2.3,4.46,4.46,0,0,0-1.7.8,3.18,3.18,0,0,0-1.1,1.2,2.82,2.82,0,0,0-.4,1.5,3.42,3.42,0,0,0,.4,1.8,4.49,4.49,0,0,0,1.1,1.3,7.68,7.68,0,0,0,1.8,1c.7.3,1.5.6,2.4,1a33.72,33.72,0,0,1,3.2,1.4,11.13,11.13,0,0,1,2.4,1.6,5.11,5.11,0,0,1,1.5,2.1,6.1,6.1,0,0,1,.5,2.8,6.76,6.76,0,0,1-.9,3.5,6.89,6.89,0,0,1-2.4,2.4,11.7,11.7,0,0,1-3.4,1.5,17.52,17.52,0,0,1-4,.5A18.11,18.11,0,0,1,60.15,307Z" transform="translate(-14.55 -8.04)"/><path id="_Trazado_3" data-name="&lt;Trazado&gt;" class="cls-1" d="M105,308h-4.3v-4.3h-.1a8.85,8.85,0,0,1-8.3,4.9c-6.4,0-9.6-3.8-9.6-11.5V281h4.3v15.4c0,5.7,2.2,8.5,6.5,8.5a6.82,6.82,0,0,0,5.2-2.3,8.81,8.81,0,0,0,2-6.1V281h4.3v27Z" transform="translate(-14.55 -8.04)"/><path id="_Trazado_compuesto_3" data-name="&lt;Trazado compuesto&gt;" class="cls-1" d="M131.35,308h-4.3v-4.2H127a9,9,0,0,1-8.3,4.8,8.88,8.88,0,0,1-6.3-2.1,7.45,7.45,0,0,1-2.3-5.7c0-5,3-8,8.9-8.8l8.1-1.1c0-4.6-1.9-6.9-5.6-6.9a13.2,13.2,0,0,0-8.8,3.3v-4.4a16.71,16.71,0,0,1,9.2-2.5c6.3,0,9.5,3.4,9.5,10.1V308ZM127,294.3l-6.5.9a10.73,10.73,0,0,0-4.5,1.5c-1,.7-1.5,2-1.5,3.8a4.16,4.16,0,0,0,1.4,3.2,5.62,5.62,0,0,0,3.8,1.3,7,7,0,0,0,5.3-2.3,8,8,0,0,0,2.1-5.7v-2.7Z" transform="translate(-14.55 -8.04)"/><rect id="_Trazado_4" data-name="&lt;Trazado&gt;" class="cls-1" x="123.3" y="259.96" width="4.3" height="39.9"/><path id="_Trazado_5" data-name="&lt;Trazado&gt;" class="cls-1" d="M155.65,306.4v-5.2a11,11,0,0,0,2.1,1.4,20.29,20.29,0,0,0,2.6,1.1,22.92,22.92,0,0,0,2.8.7,11.84,11.84,0,0,0,2.6.2c2.7,0,4.8-.5,6.1-1.5a5.29,5.29,0,0,0,2-4.4,5,5,0,0,0-.7-2.7,7.4,7.4,0,0,0-1.9-2.1,22.72,22.72,0,0,0-2.8-1.8c-1.1-.6-2.2-1.2-3.5-1.8s-2.5-1.3-3.7-2a17,17,0,0,1-3-2.3,11,11,0,0,1-2-2.8,8.43,8.43,0,0,1-.7-3.7,9.36,9.36,0,0,1,1.1-4.5,10.17,10.17,0,0,1,3-3.2,13.33,13.33,0,0,1,4.2-1.8,19.73,19.73,0,0,1,4.8-.6c3.7,0,6.4.4,8.1,1.3v5a15.06,15.06,0,0,0-8.6-2.3,14.28,14.28,0,0,0-2.9.3,7.42,7.42,0,0,0-2.6,1,4.45,4.45,0,0,0-1.8,1.8,4.41,4.41,0,0,0-.7,2.6,6.18,6.18,0,0,0,.5,2.5,7,7,0,0,0,1.6,1.9,19.55,19.55,0,0,0,2.6,1.7c1,.5,2.2,1.1,3.5,1.8s2.6,1.4,3.8,2.1a20.54,20.54,0,0,1,3.2,2.4,12.88,12.88,0,0,1,2.2,3,8.74,8.74,0,0,1,.8,3.7,9.6,9.6,0,0,1-1.1,4.7,9.15,9.15,0,0,1-3,3.2,13.92,13.92,0,0,1-4.3,1.8,21,21,0,0,1-5.1.5,18.55,18.55,0,0,1-2.2-.1,25.13,25.13,0,0,1-2.7-.4,19.73,19.73,0,0,1-2.6-.7A4.37,4.37,0,0,1,155.65,306.4Z" transform="translate(-14.55 -8.04)"/><path id="_Trazado_6" data-name="&lt;Trazado&gt;" class="cls-1" d="M195.55,307.7a7.93,7.93,0,0,1-4,.8c-4.7,0-7.1-2.6-7.1-7.9v-16h-4.6v-3.7h4.6v-6.6l4.3-1.4v8h6.8v3.7h-6.8v15.2a6.59,6.59,0,0,0,.9,3.9,3.59,3.59,0,0,0,3.1,1.2,4.47,4.47,0,0,0,2.8-.9v3.7Z" transform="translate(-14.55 -8.04)"/><path id="_Trazado_7" data-name="&lt;Trazado&gt;" class="cls-1" d="M222.25,308H218v-4.3h-.1a8.85,8.85,0,0,1-8.3,4.9c-6.4,0-9.6-3.8-9.6-11.5V281h4.3v15.4c0,5.7,2.2,8.5,6.5,8.5a6.82,6.82,0,0,0,5.2-2.3,8.81,8.81,0,0,0,2-6.1V281h4.3v27Z" transform="translate(-14.55 -8.04)"/><path id="_Trazado_compuesto_4" data-name="&lt;Trazado compuesto&gt;" class="cls-1" d="M253.25,308H249v-4.6h-.1a10.91,10.91,0,0,1-17.4,1.6q-3-3.6-3-9.9c0-4.5,1.1-8,3.4-10.7a11,11,0,0,1,9-4,8.74,8.74,0,0,1,8.1,4.4h.1V268.1h4.3V308Zm-4.3-12.2v-4a7.68,7.68,0,0,0-7.7-7.8,7.55,7.55,0,0,0-6.2,2.9c-1.5,1.9-2.3,4.6-2.3,8,0,3.1.7,5.6,2.2,7.4a7,7,0,0,0,5.8,2.7,7.58,7.58,0,0,0,5.9-2.6A10,10,0,0,0,248.95,295.8Z" transform="translate(-14.55 -8.04)"/><path id="_Trazado_compuesto_5" data-name="&lt;Trazado compuesto&gt;" class="cls-1" d="M263.35,274.1a3,3,0,0,1-2-.8,2.83,2.83,0,0,1,4-4,2.44,2.44,0,0,1,.8,2,3,3,0,0,1-.8,2A2.44,2.44,0,0,1,263.35,274.1Zm2.1,33.9h-4.3V281h4.3Z" transform="translate(-14.55 -8.04)"/><path id="_Trazado_compuesto_6" data-name="&lt;Trazado compuesto&gt;" class="cls-1" d="M284.75,308.6a12.72,12.72,0,0,1-9.6-3.8,13.94,13.94,0,0,1-3.6-10c0-4.5,1.2-8.1,3.7-10.6a13.49,13.49,0,0,1,10-3.8c4,0,7.2,1.2,9.4,3.7s3.4,5.9,3.4,10.3-1.2,7.8-3.6,10.3A12.51,12.51,0,0,1,284.75,308.6ZM285,284a8.13,8.13,0,0,0-6.6,2.8,11.73,11.73,0,0,0-2.4,7.8,10.89,10.89,0,0,0,2.5,7.6,8.45,8.45,0,0,0,6.6,2.8,7.82,7.82,0,0,0,6.4-2.7c1.5-1.8,2.3-4.4,2.3-7.7s-.8-6-2.3-7.8A7.93,7.93,0,0,0,285,284Z" transform="translate(-14.55 -8.04)"/></g></svg>