<svg width="32" height="24" viewBox="0 0 32 24" fill="none" xmlns="http://www.w3.org/2000/svg">
  <defs>
    <clipPath id="clip-es">
      <rect width="32" height="24" rx="2"/>
    </clipPath>
  </defs>
  <g clip-path="url(#clip-es)">
    <!-- Red stripes -->
    <rect width="32" height="6" fill="#AA151B"/>
    <rect y="18" width="32" height="6" fill="#AA151B"/>
    
    <!-- Yellow center -->
    <rect y="6" width="32" height="12" fill="#F1BF00"/>
    
    <!-- Coat of arms (simplified but more detailed) -->
    <g transform="translate(8, 9)">
      <!-- Shield background -->
      <rect x="6" y="1.5" width="4" height="4.5" rx="0.5" fill="#FFFFFF" stroke="#8B4513" stroke-width="0.1"/>
      <rect x="6.2" y="1.7" width="3.6" height="4.1" rx="0.3" fill="#AA151B"/>
      
      <!-- Crown (more detailed) -->
      <rect x="6.5" y="0.5" width="3" height="1.2" fill="#F1BF00"/>
      <circle cx="8" cy="1.1" r="0.3" fill="#AA151B"/>
      <rect x="7.2" y="0.8" width="1.6" height="0.3" fill="#8B4513"/>
      
      <!-- Pillars of Hercules -->
      <rect x="4.2" y="2.5" width="0.8" height="3" fill="#8B4513"/>
      <rect x="11" y="2.5" width="0.8" height="3" fill="#8B4513"/>
      
      <!-- Banner scrolls -->
      <path d="M3.8,3 Q3.4,3 3.4,3.5 Q3.4,4 3.8,4 L4.2,4 L4.2,3 Z" fill="#F1BF00"/>
      <path d="M12.2,3 Q12.6,3 12.6,3.5 Q12.6,4 12.2,4 L11.8,4 L11.8,3 Z" fill="#F1BF00"/>
      
      <!-- Plus Ultra text (simplified) -->
      <rect x="3.6" y="3.3" width="0.4" height="0.1" fill="#AA151B"/>
      <rect x="12" y="3.3" width="0.4" height="0.1" fill="#AA151B"/>
    </g>
  </g>
</svg>